<svg width="140" height="140" viewBox="0 0 140 140" fill="none" xmlns="http://www.w3.org/2000/svg">
<g clip-path="url(#clip0_20662_17343)">
<path d="M9.56468 71.8434C-3.56662 45.3737 34.3663 28.5555 51.0944 23.1561C55.8906 21.6081 60.9586 20.7693 65.9521 20.087C116.283 13.2094 98.6679 37.2172 97.7539 37.9509C92.168 42.4353 97.101 43.1529 100.921 43.1432C103.222 43.1373 105.524 42.8915 107.825 42.9433C132.556 43.4999 126.431 59.5835 122.044 67.3025C120.451 70.105 118.299 72.5523 116.089 74.8986C88.9225 103.736 105.067 89.177 92.8902 97.9105C60.4447 121.181 43.6447 122.331 36.1452 116.492C25.3653 108.098 47.8315 86.7475 34.9848 82.0986C27.3507 79.3361 13.4884 78.6456 9.56468 71.8434Z" fill="#5A7BFF"/>
<path d="M68.6875 73.9373H83.22C86.1885 73.9373 88.595 71.5308 88.595 68.5623V62.2685C88.595 59.3 91.0014 56.8936 93.9699 56.8936H101.492H110.976" stroke="white" stroke-width="1.75" stroke-linecap="round"/>
<path d="M68.25 73.4995H48.25C45.2814 73.4995 42.875 71.0931 42.875 68.1246V51.6367C42.875 48.6682 40.4686 46.2617 37.5 46.2617H35.3099H24.4871" stroke="white" stroke-width="1.75" stroke-linecap="round"/>
<path d="M66.9375 77.875V84.3353V88.0139C66.9375 89.6631 65.6006 91 63.9514 91H58.671H46.8125" stroke="white" stroke-width="1.75" stroke-linecap="round"/>
<path d="M92.0082 95.207H72.2341C70.585 95.207 69.248 93.8701 69.248 92.2209V78.5162" stroke="white" stroke-width="1.75" stroke-linecap="round"/>
<path d="M66.2725 25.8965C77.7043 24.8193 87.9365 34.2398 88.8066 44.1074V44.1084C89.5047 51.8231 84.3867 58.9603 76.543 62.2617L75.7754 62.5684C73.5915 63.3776 72.051 65.3686 71.7852 67.6797L71.7842 67.6826L71.4268 70.9775L65.6113 71.5078L65.0811 68.0713H65.082C64.7626 65.7037 63.061 63.709 60.8135 63.0586H60.8145C53.4259 60.8474 47.9431 55.1206 47.3184 47.9336V47.9307L47.2822 47.4688C46.9789 42.6864 48.835 37.642 52.1621 33.6182C55.5939 29.4677 60.5649 26.4344 66.2725 25.8965Z" fill="white" stroke="black" stroke-width="0.875"/>
<path d="M78.0117 57.7876C82.749 51.8891 81.8588 43.2256 76.0235 38.4371C70.1882 33.6485 61.6175 34.5483 56.8802 40.4468C52.143 46.3453 53.0332 55.0088 58.8685 59.7973C64.7038 64.5859 73.2745 63.6861 78.0117 57.7876Z" fill="#FFE48C"/>
<path d="M67.123 70.6803C67.0735 70.6803 67.0735 70.6803 67.123 70.6803C66.9251 70.6803 66.8261 70.5303 66.8261 70.3302C67.0735 67.4789 66.1828 64.3276 64.2033 60.676C63.758 59.8757 63.2136 58.9753 62.5208 58.0248C60.8383 58.425 59.1063 58.275 57.6217 57.6247C56.434 57.0744 55.3948 55.8739 55.7907 54.7234C56.0876 53.873 57.0279 53.4729 57.8196 53.5729C58.6609 53.6229 59.3537 54.0731 59.8981 54.4733C61.0362 55.2736 61.9765 56.3241 62.7682 57.3746C63.9064 57.0744 64.9951 56.5242 65.9353 55.7238C67.5189 54.4733 68.7065 52.6225 69.4983 50.4716C68.756 49.8213 68.0632 49.071 67.4199 48.1706C66.8261 47.4203 66.0343 46.2197 65.6384 44.8191C65.2425 43.4685 65.391 42.0679 65.9848 40.9674C66.4302 40.1171 67.4199 39.3668 68.4591 39.5668C69.2014 39.7169 69.7952 40.3672 70.2406 41.4177C71.0324 43.3685 71.2303 45.7195 70.785 48.2706C70.6365 48.9709 70.488 49.6212 70.2901 50.2215C70.8344 50.6717 71.3788 51.0218 71.9231 51.2719C72.1706 51.422 72.4675 51.522 72.7149 51.6221C73.9026 50.0714 75.3377 48.8208 76.9212 47.9705C77.3666 47.7204 77.9109 47.7704 78.3563 48.1206C78.9006 48.5207 79.247 49.171 79.1976 49.8213C79.0986 50.9718 78.0594 51.8222 77.1686 52.1723C75.882 52.7226 74.3974 52.7225 72.9128 52.3224C71.8736 53.773 71.0324 55.5238 70.587 57.3746C69.7457 60.676 69.7952 64.5277 70.785 68.8295C70.785 68.8295 70.8344 68.8796 70.8344 68.9296C70.8839 69.0296 70.9829 69.2297 70.9334 69.4298C70.8839 69.6299 70.686 69.7299 70.488 69.6799C70.2901 69.6299 70.0921 69.4798 70.1416 69.2297C70.1416 69.1797 70.1911 69.0796 70.2406 69.0296C70.2406 68.9796 70.1911 68.9796 70.1911 68.9296C69.2014 64.5277 69.1519 60.576 69.9932 57.1745C70.488 55.2737 71.2798 53.5729 72.319 52.0723C72.0716 51.9722 71.8736 51.8722 71.6262 51.7721C71.0819 51.522 70.587 51.1719 70.0427 50.7717C69.2509 52.9727 67.9643 54.8235 66.3807 56.124C65.4405 56.9244 64.3518 57.4746 63.2136 57.8248C63.8569 58.7252 64.3518 59.6255 64.7972 60.3759C66.8756 64.1275 67.7663 67.3789 67.5189 70.3802C67.3704 70.5803 67.2715 70.6803 67.123 70.6803ZM57.6217 54.1732C57.1268 54.1732 56.4835 54.4233 56.2856 54.9735C55.9392 55.8739 56.9784 56.7743 57.7702 57.1245C59.0568 57.6747 60.5414 57.8248 62.0259 57.5246C61.2837 56.6242 60.4424 55.7238 59.4527 54.9735C59.0073 54.6234 58.364 54.2232 57.6712 54.1732C57.7207 54.1732 57.6712 54.1732 57.6217 54.1732ZM73.1603 51.8222C74.4469 52.1723 75.7335 52.0723 76.8222 51.6221C77.5645 51.3219 78.4058 50.6717 78.4553 49.7713C78.5048 49.3711 78.2573 48.8709 77.8614 48.6208C77.713 48.5207 77.3666 48.3206 77.0202 48.5207C75.5851 49.3211 74.249 50.4716 73.1603 51.8222ZM67.9643 40.1171C67.3209 40.1171 66.7271 40.6673 66.3807 41.2176C65.8858 42.168 65.7869 43.3685 66.1333 44.569C66.3807 45.5694 66.925 46.5199 67.8158 47.7204C68.4096 48.5207 69.0035 49.221 69.6468 49.7713C69.7952 49.221 69.9437 48.6708 70.0427 48.1206C70.488 45.6695 70.3396 43.4185 69.5478 41.6177C69.2014 40.7674 68.756 40.2671 68.2117 40.1171C68.1127 40.1171 68.0632 40.1171 67.9643 40.1171Z" fill="black"/>
<path d="M63.8047 69.23L73.1575 68.4297C73.1575 68.4297 72.9596 79.1843 68.3574 78.7842C63.7552 78.484 63.8047 69.23 63.8047 69.23Z" fill="black"/>
<path d="M63.6562 71.735C63.5078 71.735 63.3593 71.6349 63.3593 71.4848C63.3098 71.3348 63.4583 71.1847 63.6067 71.1347L73.1575 69.584C73.306 69.534 73.4544 69.6841 73.5039 69.8341C73.5534 69.9842 73.405 70.1343 73.2565 70.1843L63.6562 71.735C63.7057 71.735 63.7057 71.6849 63.6562 71.735Z" fill="white"/>
<path d="M63.6749 73.9237C63.5181 73.9237 63.3613 73.8317 63.3613 73.6479C63.3613 73.5099 63.4659 73.372 63.6749 73.372L72.9782 72.8203C73.135 72.8203 73.2918 72.9123 73.2918 73.0962C73.2918 73.2341 73.1873 73.372 72.9782 73.372L63.6749 73.9237Z" fill="white"/>
<path d="M64.7969 76.1293C64.6485 76.1293 64.5 76.0293 64.5 75.8792C64.5 75.7292 64.599 75.5791 64.7474 75.5291L72.1208 74.6787C72.2693 74.6787 72.4177 74.7788 72.4672 74.9288C72.4672 75.0789 72.3683 75.2289 72.2198 75.279L64.7969 76.1293Z" fill="white"/>
<rect x="104.906" y="44.7549" width="35.0937" height="24.6271" rx="12.3136" fill="#FA7C6B"/>
<rect x="0.210938" y="32.375" width="35.0937" height="24.6271" rx="12.3136" fill="#ADA2FF"/>
<rect x="17.6582" y="78.8955" width="35.0937" height="24.6271" rx="12.3136" fill="#DCFF9C"/>
<rect x="89.7305" y="81.9297" width="35.0937" height="24.6271" rx="12.3136" fill="#C1F7FF"/>
<path d="M92.536 29.4314C92.5483 29.3473 92.615 29.2816 92.6993 29.2707L95.6423 28.8896C95.8598 28.8615 95.8639 28.548 95.6472 28.5142L92.7692 28.0645C92.6852 28.0514 92.6202 27.984 92.6101 27.8996L92.2604 24.9753C92.2342 24.7567 91.9194 24.7506 91.8848 24.9679L91.417 27.9014C91.4037 27.9848 91.3368 28.0494 91.2529 28.0598L88.4994 28.3994C88.2792 28.4266 88.2768 28.745 88.4966 28.7755L91.2835 29.162C91.3695 29.1739 91.4364 29.2427 91.446 29.329L91.76 32.1654C91.7845 32.3866 92.1041 32.3921 92.1362 32.1719L92.536 29.4314Z" fill="white"/>
<path d="M31.4774 61.1824C31.4897 61.0982 31.5564 61.0326 31.6407 61.0216L34.5837 60.6406C34.8012 60.6125 34.8053 60.299 34.5886 60.2651L31.7106 59.8155C31.6266 59.8023 31.5616 59.735 31.5515 59.6506L31.2018 56.7262C31.1757 56.5077 30.8608 56.5016 30.8262 56.7189L30.3584 59.6524C30.3451 59.7358 30.2782 59.8004 30.1943 59.8107L27.4408 60.1504C27.2206 60.1776 27.2182 60.496 27.438 60.5265L30.2249 60.913C30.3109 60.9249 30.3778 60.9937 30.3874 61.0799L30.7015 63.9164C30.7259 64.1375 31.0455 64.1431 31.0777 63.9229L31.4774 61.1824Z" fill="white"/>
<path d="M100.407 36.4001C100.419 36.316 100.486 36.2503 100.57 36.2394L102.809 35.9496C103.026 35.9214 103.03 35.608 102.814 35.5741L100.629 35.2327C100.545 35.2196 100.48 35.1522 100.47 35.0678L100.205 32.8503C100.178 32.6317 99.8636 32.6256 99.8289 32.8429L99.4739 35.0696C99.4605 35.1531 99.3936 35.2177 99.3098 35.228L97.2494 35.4821C97.0292 35.5093 97.0268 35.8278 97.2466 35.8583L99.3348 36.1478C99.4207 36.1597 99.4877 36.2285 99.4972 36.3148L99.7324 38.4388C99.7569 38.6599 100.076 38.6655 100.109 38.4453L100.407 36.4001Z" fill="white"/>
<path d="M37.4265 71.657C37.4387 71.5728 37.5055 71.5072 37.5898 71.4962L39.8283 71.2064C40.0458 71.1783 40.05 70.8648 39.8332 70.8309L37.6484 70.4896C37.5644 70.4764 37.4994 70.4091 37.4893 70.3247L37.2241 68.1071C37.198 67.8886 36.8831 67.8824 36.8485 68.0997L36.4934 70.3265C36.4801 70.4099 36.4132 70.4745 36.3293 70.4848L34.269 70.739C34.0487 70.7661 34.0463 71.0846 34.2661 71.1151L36.3543 71.4047C36.4403 71.4166 36.5072 71.4854 36.5167 71.5716L36.7519 73.6956C36.7764 73.9168 37.096 73.9223 37.1281 73.7021L37.4265 71.657Z" fill="white"/>
<path d="M40.4197 63.7218C40.4197 63.3147 40.0866 62.9631 39.661 62.9631C39.2354 62.9631 38.9023 63.2962 38.9023 63.7218C38.9023 64.1289 39.2354 64.4805 39.661 64.4805C40.0866 64.4805 40.4197 64.1289 40.4197 63.7218Z" fill="white"/>
<path d="M119.58 36.4356C116.116 30.6418 107.435 32.2884 106.135 35.1727C104.235 39.2827 111.01 40.3812 111.01 40.3812C124.257 42.5078 119.276 36.3661 119.58 36.4356Z" fill="#5A7BFF"/>
</g>
<defs>
<clipPath id="clip0_20662_17343">
<rect width="140" height="140" fill="white"/>
</clipPath>
</defs>
</svg>
