<svg width="140" height="140" viewBox="0 0 140 140" fill="none" xmlns="http://www.w3.org/2000/svg">
<g clip-path="url(#clip0_20662_17594)">
<path d="M55.1882 18.68C54.085 18.5214 52.8881 18.3835 51.916 18.9242C50.6555 19.6277 50.2224 21.3233 50.6211 22.7107C51.0208 24.0951 52.0703 25.2045 53.2038 26.1066C55.771 28.148 58.9566 29.4055 62.2299 29.674C63.2604 29.7596 64.4225 29.6972 65.1341 28.9603C65.991 28.073 65.8884 26.5186 66.8344 25.7254C67.3829 25.2657 68.1452 25.1817 68.8297 24.9652C73.7011 23.4217 70.4784 21.1576 67.391 20.6122C63.3347 19.8931 59.262 19.2626 55.1852 18.6792L55.1882 18.68Z" fill="#5A7BFF"/>
<path d="M32.1929 18.2776C28.4251 17.8562 21.5548 19.587 18.1034 21.5921C3.76607 29.9215 -2.39433 51.235 8.69265 65.1479C11.8636 69.1271 16.0629 72.0196 19.7872 75.4273C24.2431 79.5039 26.9673 83.9342 27.8935 90.0822C28.8403 96.3711 28.8968 103.169 31.5982 108.992C36.4346 119.417 48.5249 123.36 59.4369 124.954C71.7044 126.746 84.3524 126.912 96.3232 123.562C108.294 120.214 119.58 113.111 126.709 102.442C132.913 93.1568 135.664 81.7448 136.654 70.4382C137.573 59.9572 136.917 48.7799 131.515 39.925C125.295 29.7314 113.488 24.2922 101.987 24.0987C93.537 23.9567 85.5916 26.5308 77.8963 29.9833C68.7117 34.1033 64.1013 39.0047 53.7286 32.5452C50.4446 30.5002 47.7675 27.6282 45.0433 24.8814C44.0434 23.8732 43.0552 22.9088 42.2429 22.0846C40.0622 19.8734 34.8931 18.5799 32.1929 18.2776Z" fill="#5A7BFF"/>
<path d="M28.6171 61.7972C28.6171 61.0743 28.0312 60.4883 27.3085 60.4883C26.5858 60.4883 26 61.0743 26 61.7972V75.128C26 75.8509 26.5858 76.437 27.3085 76.437C28.0312 76.437 28.6171 75.8509 28.6171 75.128V61.7972Z" fill="white"/>
<path d="M108.617 60.7972C108.617 60.0743 108.031 59.4883 107.309 59.4883C106.586 59.4883 106 60.0743 106 60.7972V74.128C106 74.8509 106.586 75.437 107.309 75.437C108.031 75.437 108.617 74.8509 108.617 74.128V60.7972Z" fill="white" fill-opacity="0.9"/>
<path d="M34.0331 60.2191C34.0331 59.4962 33.4472 58.9102 32.7245 58.9102C32.0019 58.9102 31.416 59.4962 31.416 60.2191V76.7137C31.416 77.4366 32.0019 78.0227 32.7245 78.0227C33.4472 78.0227 34.0331 77.4366 34.0331 76.7137V60.2191Z" fill="white"/>
<path d="M114.033 59.2191C114.033 58.4962 113.447 57.9102 112.725 57.9102C112.002 57.9102 111.416 58.4962 111.416 59.2191V75.7137C111.416 76.4366 112.002 77.0227 112.725 77.0227C113.447 77.0227 114.033 76.4366 114.033 75.7137V59.2191Z" fill="white"/>
<path d="M39.4276 53.309C39.4276 52.586 38.8418 52 38.1191 52C37.3964 52 36.8105 52.586 36.8105 53.309V83.621C36.8105 84.3439 37.3964 84.93 38.1191 84.93C38.8418 84.93 39.4276 84.3439 39.4276 83.621V53.309Z" fill="white"/>
<path d="M119.428 52.309C119.428 51.586 118.842 51 118.119 51C117.396 51 116.811 51.586 116.811 52.309V82.621C116.811 83.3439 117.396 83.93 118.119 83.93C118.842 83.93 119.428 83.3439 119.428 82.621V52.309Z" fill="white"/>
<path d="M44.8534 57.2074C44.8534 56.4845 44.2675 55.8984 43.5449 55.8984C42.8222 55.8984 42.2363 56.4845 42.2363 57.2074V79.7292C42.2363 80.4521 42.8222 81.0382 43.5449 81.0382C44.2675 81.0382 44.8534 80.4521 44.8534 79.7292V57.2074Z" fill="white"/>
<path d="M124.853 56.2074C124.853 55.4845 124.268 54.8984 123.545 54.8984C122.822 54.8984 122.236 55.4845 122.236 56.2074V78.7292C122.236 79.4521 122.822 80.0382 123.545 80.0382C124.268 80.0382 124.853 79.4521 124.853 78.7292V56.2074Z" fill="white"/>
<path d="M50.2733 62.2699C50.2733 61.547 49.6875 60.9609 48.9648 60.9609C48.2421 60.9609 47.6562 61.547 47.6562 62.2699V74.666C47.6562 75.3889 48.2421 75.9749 48.9648 75.9749C49.6875 75.9749 50.2733 75.3889 50.2733 74.666V62.2699Z" fill="white" fill-opacity="0.9"/>
<path d="M130.273 61.2699C130.273 60.547 129.687 59.9609 128.965 59.9609C128.242 59.9609 127.656 60.547 127.656 61.2699V73.666C127.656 74.3889 128.242 74.9749 128.965 74.9749C129.687 74.9749 130.273 74.3889 130.273 73.666V61.2699Z" fill="white"/>
<path d="M55.4416 37.4794L103.104 39.5989C105.587 39.7093 107.511 41.8115 107.4 44.2943L104.375 112.327C104.265 114.81 102.162 116.733 99.6795 116.622L52.0166 114.503C49.5338 114.393 47.6106 112.29 47.721 109.807L50.7461 41.7751C50.8565 39.2923 52.9588 37.369 55.4416 37.4794Z" fill="white" stroke="black"/>
<path d="M59.1125 51.6887C59.153 50.7787 58.4482 50.0083 57.5382 49.9678C56.6283 49.9273 55.8578 50.6322 55.8174 51.5421C55.7769 52.4521 56.4818 53.2225 57.3917 53.263C58.3016 53.3034 59.0721 52.5986 59.1125 51.6887Z" fill="#7685DB"/>
<path d="M77.3924 50.851L62.75 50.1999C62.1589 50.1737 61.6469 50.89 61.6064 51.7999C61.566 52.7099 62.0123 53.4688 62.6035 53.4951L77.2458 54.1462C77.8369 54.1725 78.3489 53.4562 78.3894 52.5462C78.4298 51.6363 77.9835 50.8773 77.3924 50.851Z" fill="#7685DB"/>
<path d="M94.1768 64.6486L62.7477 63.251C61.8375 63.2105 61.0668 63.9154 61.0263 64.8253C60.9859 65.7353 61.691 66.5057 62.6012 66.5462L94.0303 67.9438C94.9406 67.9842 95.7112 67.2794 95.7517 66.3695C95.7922 65.4595 95.0871 64.689 94.1768 64.6486Z" fill="#CDA2FF"/>
<path d="M76.2563 76.431L62.0856 75.8008C61.1754 75.7604 60.4047 76.4652 60.3642 77.3751C60.3238 78.2851 61.0289 79.0555 61.9391 79.096L76.1098 79.7261C77.0201 79.7666 77.7907 79.0618 77.8312 78.1518C77.8717 77.2419 77.1666 76.4714 76.2563 76.431Z" fill="#7685DB"/>
<path d="M98.4538 90.6609L61.4977 89.0176C60.5875 88.9771 59.8168 89.682 59.7763 90.5919C59.7359 91.5019 60.441 92.2723 61.3512 92.3128L98.3072 93.9561C99.2175 93.9966 99.9882 93.2918 100.029 92.3818C100.069 91.4719 99.364 90.7014 98.4538 90.6609Z" fill="#CDA2FF"/>
<path d="M95.6687 103.777L60.9099 102.231C59.9996 102.191 59.2289 102.896 59.1885 103.806C59.148 104.716 59.8531 105.486 60.7633 105.527L95.5222 107.072C96.4324 107.113 97.2031 106.408 97.2436 105.498C97.2841 104.588 96.579 103.818 95.6687 103.777Z" fill="#7685DB"/>
<path d="M58.5325 64.715C58.5729 63.8051 57.8681 63.0346 56.9581 62.9942C56.0482 62.9537 55.2777 63.6586 55.2373 64.5685C55.1968 65.4784 55.9017 66.2489 56.8116 66.2893C57.7216 66.3298 58.492 65.625 58.5325 64.715Z" fill="#CDA2FF"/>
<path d="M57.9758 77.2687C58.0163 76.3588 57.3114 75.5883 56.4015 75.5479C55.4916 75.5074 54.7211 76.2123 54.6806 77.1222C54.6402 78.0321 55.345 78.8026 56.255 78.8431C57.1649 78.8835 57.9354 78.1787 57.9758 77.2687Z" fill="#7685DB"/>
<path d="M57.3879 90.4865C57.4284 89.5766 56.7235 88.8061 55.8136 88.7656C54.9037 88.7252 54.1332 89.43 54.0928 90.34C54.0523 91.2499 54.7571 92.0204 55.6671 92.0608C56.577 92.1013 57.3475 91.3964 57.3879 90.4865Z" fill="#CDA2FF"/>
<path d="M56.8 103.699C56.8405 102.789 56.1357 102.019 55.2257 101.979C54.3158 101.938 53.5453 102.643 53.5049 103.553C53.4644 104.463 54.1693 105.233 55.0792 105.274C55.9891 105.314 56.7596 104.609 56.8 103.699Z" fill="#7685DB"/>
<path d="M111.724 37.018C111.723 37.0173 111.722 37.0168 111.721 37.0166C111.568 36.9778 111.576 36.7772 111.736 36.7557L115.946 36.1658C117.46 35.9529 118.719 34.4584 119.026 32.504L119.707 28.1822C119.731 28.0206 119.994 28.036 120.003 28.1995L120.177 32.5711C120.256 34.5481 121.33 36.1767 122.811 36.5664L126.926 37.6442C127.081 37.6862 127.067 37.8855 126.909 37.9052L122.748 38.4196C121.213 38.6085 119.934 40.1142 119.624 42.0933L118.94 46.4726C118.916 46.6342 118.651 46.6208 118.644 46.4553L118.473 42.0261C118.396 40.0245 117.3 38.3802 115.797 38.014L111.726 37.0195C111.725 37.0192 111.724 37.0187 111.724 37.018Z" fill="white"/>
<path d="M124.073 49.2682C124.072 49.2677 124.072 49.2674 124.071 49.2672C123.977 49.2351 123.992 49.1092 124.094 49.1037L126.774 48.9441C127.738 48.8862 128.605 48.0086 128.897 46.7936L129.543 44.1071C129.566 44.0065 129.731 44.0294 129.729 44.1328L129.619 46.8938C129.569 48.1424 130.163 49.2217 131.076 49.5415L133.612 50.427C133.707 50.4612 133.689 50.586 133.588 50.5905L130.943 50.7051C129.967 50.7468 129.086 51.6304 128.791 52.8608L128.14 55.5834C128.117 55.684 127.951 55.6622 127.955 55.5577L128.07 52.7606C128.122 51.4966 127.515 50.4062 126.587 50.1001L124.074 49.2692C124.074 49.2691 124.073 49.2687 124.073 49.2682Z" fill="white"/>
<path d="M33.0974 108.52C33.0969 108.52 33.0963 108.52 33.0957 108.52C32.9963 108.513 32.9787 108.387 33.0754 108.356L35.6256 107.515C36.5423 107.213 37.1561 106.142 37.1273 104.893L37.0638 102.13C37.0605 102.027 37.2257 102.007 37.2497 102.108L37.8501 104.805C38.1216 106.025 38.9726 106.916 39.9367 106.991L42.6155 107.198C42.7161 107.207 42.73 107.332 42.6341 107.362L40.1064 108.15C39.1737 108.44 38.548 109.52 38.5787 110.785L38.6466 113.583C38.6499 113.687 38.4836 113.708 38.4607 113.606L37.8558 110.873C37.5825 109.637 36.7162 108.739 35.7411 108.681L33.099 108.521C33.0984 108.521 33.0979 108.521 33.0974 108.52Z" fill="white"/>
<path d="M18.3323 53.6819C18.3318 53.6817 18.3313 53.6816 18.3309 53.6817C18.2536 53.6935 18.2186 53.6005 18.2872 53.5599L20.0934 52.4793C20.7426 52.0904 21.0284 51.1663 20.7919 50.2158L20.2693 48.1139C20.249 48.0356 20.3719 47.9919 20.4075 48.0647L21.3297 50.0245C21.7467 50.9108 22.5505 51.4463 23.3008 51.3386L25.3851 51.0367C25.4635 51.0261 25.4957 51.1197 25.4275 51.1591L23.6295 52.1957C22.966 52.5778 22.6727 53.511 22.9132 54.4731L23.4455 56.6019C23.4657 56.6802 23.3422 56.7252 23.3072 56.6511L22.3754 54.6643C21.9544 53.7665 21.1376 53.228 20.3818 53.3507L18.3336 53.6821C18.3332 53.6822 18.3327 53.6821 18.3323 53.6819Z" fill="white"/>
<path d="M108.307 86.6006C108.306 86.6004 108.306 86.6003 108.306 86.6002C108.259 86.5909 108.259 86.5308 108.306 86.522L109.555 86.2839C110.005 86.1981 110.359 85.7331 110.422 85.1446L110.562 83.8435C110.566 83.7949 110.645 83.7956 110.65 83.8443L110.767 85.1478C110.819 85.7373 111.164 86.208 111.612 86.3027L112.857 86.5641C112.904 86.5744 112.903 86.6342 112.856 86.6424L111.621 86.8572C111.165 86.9362 110.805 87.4049 110.741 88.0007L110.601 89.3191C110.597 89.3677 110.517 89.3676 110.513 89.3183L110.397 87.9975C110.344 87.4007 109.992 86.9255 109.538 86.8382L108.307 86.601C108.307 86.6009 108.307 86.6008 108.307 86.6006Z" fill="white"/>
<path d="M124.15 100.573C124.15 102.527 122.531 104.145 120.575 104.145C118.619 104.145 117 102.527 117 100.573C117 98.6178 118.619 97 120.575 97C122.531 97 124.15 98.6178 124.15 100.573Z" fill="white"/>
<path d="M72.1497 14.5726C72.1497 16.5274 70.5309 18.1452 68.5748 18.1452C66.6188 18.1452 65 16.5274 65 14.5726C65 12.6178 66.6188 11 68.5748 11C70.5309 11 72.1497 12.6178 72.1497 14.5726Z" fill="#B1D5FD"/>
<path d="M46 99.5C46 100.321 45.3208 101 44.5 101C43.6792 101 43 100.321 43 99.5C43 98.6792 43.6792 98 44.5 98C45.3208 98 46 98.6792 46 99.5Z" fill="white"/>
<path d="M117 119.5C117 120.868 115.868 122 114.5 122C113.132 122 112 120.868 112 119.5C112 118.132 113.132 117 114.5 117C115.868 117 117 118.132 117 119.5Z" fill="#B1D5FD"/>
<path d="M95.652 79.06L97.3054 74.2738C97.3511 74.1415 97.515 74.0958 97.6225 74.1854L100.755 76.7961C100.869 76.8905 100.844 77.0708 100.71 77.1318L95.9238 79.3074C95.7639 79.3801 95.5946 79.226 95.652 79.06Z" fill="black"/>
<path d="M117.039 50.0759L98.3131 72.9355C97.5621 73.8523 97.6082 75.1841 98.4208 76.0467C99.3963 77.0823 101.06 77.0247 101.961 75.9241L120.687 53.0645C121.438 52.1477 121.392 50.8159 120.579 49.9533C119.604 48.9177 117.94 48.9753 117.039 50.0759Z" fill="black" stroke="black"/>
<path d="M1.16242 82.9817C4.52291 80.853 11.5626 79.252 12.8376 89.8781C13.1396 92.3947 16.2188 96.8998 23.5116 93.9933C27.252 92.2105 30.9992 93.4228 31.2029 99.7523" stroke="white" stroke-width="1.09804" stroke-linecap="round"/>
<path d="M89.4898 20.3845C91.4003 17.7865 96.2449 14.5026 100.34 22.1518C101.309 23.9633 104.962 26.4581 109.613 22.1137C111.913 19.665 115.1 19.4761 117.119 24.1962" stroke="#D2E6FF" stroke-width="1.09804" stroke-linecap="round"/>
<path d="M129.818 119.661C129.818 119.66 129.818 119.66 129.817 119.66C129.746 119.627 129.768 119.53 129.848 119.534L131.951 119.624C132.707 119.656 133.453 119.041 133.778 118.117L134.497 116.074C134.523 115.998 134.65 116.029 134.64 116.109L134.333 118.253C134.194 119.223 134.571 120.112 135.257 120.435L137.164 121.328C137.235 121.362 137.211 121.458 137.132 121.454L135.06 121.331C134.296 121.286 133.538 121.904 133.21 122.84L132.484 124.911C132.458 124.987 132.33 124.957 132.342 124.876L132.656 122.704C132.798 121.722 132.411 120.824 131.712 120.511L129.819 119.661C129.819 119.661 129.819 119.661 129.818 119.661Z" fill="white"/>
<path d="M33.5988 40.4236C33.5984 40.4232 33.5978 40.423 33.5972 40.4229C33.4979 40.4137 33.4833 40.2878 33.5808 40.2587L36.1501 39.4787C37.0738 39.1977 37.7127 38.1421 37.7135 36.8925L37.7154 34.1294C37.7145 34.0262 37.8801 34.0101 37.9018 34.1112L38.4382 36.8218C38.6807 38.0476 39.5104 38.9587 40.4724 39.0569L43.1456 39.3267C43.246 39.3378 43.2569 39.4635 43.1603 39.4912L40.6147 40.2193C39.6754 40.4874 39.0242 41.5521 39.025 42.8172L39.0266 45.6166C39.0275 45.7197 38.8607 45.7373 38.8402 45.6348L38.3003 42.8879C38.0563 41.6465 37.2114 40.7278 36.238 40.6464L33.6005 40.4243C33.5999 40.4242 33.5993 40.424 33.5988 40.4236Z" fill="white"/>
<path d="M8.67145 45.2134C8.14596 41.8424 9.29346 35.7579 18.0874 38.388C20.1701 39.0108 24.7663 38.1291 24.9734 31.3992C24.85 27.8477 27.0846 25.3148 32.1327 27.3185" stroke="#D2E6FF" stroke-width="1.09804" stroke-linecap="round"/>
</g>
<defs>
<clipPath id="clip0_20662_17594">
<rect width="140" height="140" fill="white"/>
</clipPath>
</defs>
</svg>
