<svg width="327" height="240" viewBox="0 0 327 240" fill="none" xmlns="http://www.w3.org/2000/svg">
<g clip-path="url(#clip0_20662_18597)">
<path d="M38.9324 124.785C49.8783 124.831 61.2358 129.421 71.4355 125.426C90.2807 118.043 89.0199 89.6785 103.306 75.2945C113.557 64.9722 130.374 63.9581 144.037 68.8579C157.7 73.7578 169.012 83.5007 180.138 92.8554C191.264 102.21 202.971 111.617 216.927 115.596C232.798 120.123 250.223 117.215 265.733 122.855C284.188 129.571 297.238 149.036 296.507 168.754C295.777 188.473 281.316 206.908 262.414 212.217C237.198 219.3 210.906 204.456 184.754 205.77C141.248 207.959 106.753 247.422 60.6492 233.519C37.3268 226.487 -0.929642 188.488 0.0172495 163.922C0.789172 143.893 18.5845 124.702 38.9324 124.785Z" fill="#5A7BFF"/>
<path d="M122.274 138.449C125.041 128.97 118.864 129.071 127.929 132.205C134.416 132.241 155.475 127.844 164.339 125.322C183.556 122.359 200.861 123.583 218.522 151.365C234.686 181.879 262.158 163.415 266.462 159.489C278.283 146.015 276.108 143.636 299.844 134.302C333.829 120.937 323.71 47.5397 291.874 43.1517C288.475 29.2909 273.271 22.6672 261.031 24.8717C252.434 26.4202 245.637 33.4966 237.154 35.5794C224.992 38.569 206.976 32.9766 195.463 27.6879C185.483 23.1018 174.607 20.1716 163.785 20.9093C152.964 21.647 142.183 26.3583 135.267 35.0136C124.902 48.0027 124.929 66.578 123.222 83.4797C121.515 100.381 115.477 119.596 100.084 124.965C107.06 130.337 114.223 135.148 122.275 138.463L122.274 138.449Z" fill="#C0E2FF"/>
<rect x="35.3477" y="142.877" width="83.4622" height="59.1212" rx="6.87336" fill="white"/>
<path d="M57.933 200.521L71.561 167.313L92.3747 174.063L86.4082 201.507L57.933 200.521Z" fill="black"/>
<rect x="29.457" y="200.028" width="94.2633" height="4.92676" rx="2.46338" fill="white"/>
<rect x="37.8035" y="145.341" width="78.5527" height="54.1979" rx="4.41859" stroke="#5A7BFF" stroke-width="0.981909"/>
<path d="M66.9152 156.138C66.5459 160.106 66.7717 163.96 68.563 167.648C72.0499 174.832 80.3657 178.202 87.958 178.656C97.7656 179.242 104.202 172.97 110.004 165.759C111.942 163.35 114.549 161.207 117.464 159.914C120.531 158.555 126.28 158.56 129.171 156.829C132.409 154.891 132.649 151.091 130.781 148.103C126.222 140.808 115.045 143.955 109.976 148.953C109.79 149.136 109.371 149.588 108.724 150.129C107.794 150.905 106.392 151.865 104.531 152.472C103.606 152.774 102.571 152.987 101.422 153.049C101.372 153.021 101.007 151.721 100.479 149.759C99.9354 147.74 99.2186 145.018 98.5017 142.265C98.4504 142.069 98.4001 141.874 98.3488 141.678C97.8039 139.583 97.2635 137.499 96.8032 135.713" fill="white"/>
<path d="M66.9152 156.138C66.5459 160.106 66.7717 163.96 68.5631 167.648C72.0499 174.832 80.3657 178.202 87.958 178.656C97.7656 179.242 104.202 172.97 110.004 165.759C111.942 163.35 114.549 161.207 117.464 159.914C120.531 158.555 126.28 158.56 129.171 156.829C132.409 154.891 132.649 151.091 130.781 148.103C126.222 140.808 115.045 143.955 109.976 148.953C109.79 149.136 109.371 149.588 108.724 150.129C107.794 150.905 106.392 151.865 104.531 152.472C103.606 152.774 102.571 152.987 101.422 153.049C101.372 153.021 101.007 151.721 100.479 149.759C99.9354 147.74 99.2186 145.018 98.5017 142.265C98.4504 142.069 98.4001 141.874 98.3488 141.678C97.8039 139.583 97.2635 137.499 96.8032 135.713" stroke="black" stroke-width="2.20114" stroke-miterlimit="10"/>
<path d="M107.922 151.069C101.029 154.673 97.5891 160.451 99.2779 168.392" stroke="black" stroke-width="2.20114" stroke-miterlimit="10" stroke-linecap="round"/>
<path d="M101.459 120.362L75.2195 151.676C72.4459 154.985 72.8642 159.914 76.156 162.709L89.7097 174.217C93.0319 177.038 98.0156 176.615 100.815 173.275L127.055 141.961C129.828 138.651 129.41 133.723 126.118 130.928L112.565 119.419C109.242 116.598 104.259 117.021 101.459 120.362Z" fill="#0F0F0F"/>
<path d="M92.8574 134.645C93.2833 135.09 93.7417 135.502 94.2359 135.872C94.3284 135.942 94.4242 136.01 94.5189 136.077C95.3445 136.647 96.2819 136.981 97.2384 136.98C97.8908 136.977 98.5518 136.82 99.1891 136.473C99.4524 136.33 99.6892 136.174 99.8996 136.006C100.932 135.192 101.393 134.089 101.596 132.709C101.749 131.666 101.687 130.61 101.526 129.584C101.465 129.186 101.386 128.795 101.302 128.408C101.276 128.294 101.25 128.178 101.224 128.064C100.951 126.841 100.655 125.627 100.289 124.433C99.9083 123.193 99.5032 121.822 98.806 120.723C98.5932 120.386 98.3273 120.051 98.0191 119.761C97.6318 119.397 97.1779 119.106 96.6757 118.974C95.7563 118.731 94.6901 118.837 93.7383 118.909C92.5133 119.004 91.307 119.359 90.2414 120.001C89.0931 120.696 87.5275 122.17 87.2827 123.533C87.1862 124.075 87.2767 124.657 87.396 125.179C87.7447 126.707 88.4912 128.154 89.2978 129.531L89.3009 129.536" fill="white"/>
<path d="M92.8574 134.645C93.2833 135.09 93.7417 135.502 94.2359 135.872C94.3284 135.942 94.4242 136.01 94.5189 136.077C95.3445 136.647 96.2819 136.981 97.2384 136.98C97.8908 136.977 98.5518 136.82 99.1891 136.473C99.4524 136.33 99.6892 136.174 99.8996 136.006C100.932 135.192 101.393 134.089 101.596 132.709C101.749 131.666 101.687 130.61 101.526 129.584C101.465 129.186 101.386 128.795 101.302 128.408C101.276 128.294 101.25 128.178 101.224 128.064C100.951 126.841 100.655 125.627 100.289 124.433C99.9083 123.193 99.5032 121.822 98.806 120.723C98.5932 120.386 98.3273 120.051 98.0191 119.761C97.6318 119.397 97.1779 119.106 96.6757 118.974C95.7563 118.731 94.6901 118.837 93.7383 118.909C92.5133 119.004 91.307 119.359 90.2414 120.001C89.0931 120.696 87.5275 122.17 87.2827 123.533C87.1862 124.075 87.2767 124.657 87.396 125.179C87.7447 126.707 88.4912 128.154 89.2978 129.531L89.3009 129.536" stroke="black" stroke-width="2.20114" stroke-miterlimit="10"/>
<g filter="url(#filter0_dii_20662_18597)">
<path fill-rule="evenodd" clip-rule="evenodd" d="M102.089 139.864C103.295 138.399 105.455 138.193 106.915 139.402C108.375 140.612 108.58 142.78 107.375 144.245L103.406 149.067C102.2 150.532 100.04 150.739 98.5802 149.529C97.1206 148.319 96.9147 146.151 98.1203 144.687L102.089 139.864Z" fill="url(#paint0_linear_20662_18597)"/>
<path d="M98.1401 143.73C98.2607 143.583 98.2401 143.366 98.0941 143.245C97.9481 143.124 97.7321 143.145 97.6115 143.291L97.1353 143.87C95.5639 145.779 95.7394 148.559 97.4764 150.257C97.4952 150.275 97.4972 150.305 97.4804 150.325L97.1649 150.709C96.973 150.942 96.8582 151.214 96.8176 151.493C96.8118 151.533 96.7641 151.553 96.7328 151.527L95.8446 150.791C95.6987 150.67 95.4826 150.69 95.3621 150.837C95.2415 150.983 95.2621 151.2 95.4081 151.321L97.3782 152.954C97.5241 153.075 97.7402 153.054 97.8607 152.908C97.9813 152.761 97.9607 152.544 97.8147 152.423C97.4299 152.105 97.3757 151.533 97.6935 151.147L98.009 150.763C98.0257 150.743 98.0554 150.739 98.077 150.754C100.066 152.145 102.82 151.793 104.391 149.884L104.867 149.305C104.988 149.159 104.967 148.942 104.821 148.821C104.675 148.7 104.459 148.721 104.339 148.867L103.862 149.446C102.449 151.164 99.9148 151.406 98.2032 149.987C96.4915 148.569 96.25 146.026 97.6638 144.308L98.1401 143.73Z" fill="url(#paint1_linear_20662_18597)"/>
</g>
<g filter="url(#filter1_di_20662_18597)">
<path d="M108.26 146.238C108.38 146.092 108.596 146.071 108.742 146.192L108.838 146.272C108.984 146.393 109.005 146.61 108.884 146.756C108.764 146.903 108.548 146.923 108.402 146.802L108.306 146.723C108.16 146.602 108.139 146.385 108.26 146.238Z" fill="white"/>
<path d="M109.583 146.889C109.437 146.768 109.221 146.789 109.101 146.935C108.98 147.082 109.001 147.299 109.147 147.42L110.011 148.136C110.157 148.257 110.373 148.237 110.494 148.09C110.615 147.944 110.594 147.727 110.448 147.606L109.583 146.889Z" fill="white"/>
<path d="M106.57 146.217C106.69 146.07 106.906 146.05 107.052 146.171L107.149 146.25C107.295 146.371 107.315 146.588 107.195 146.735C107.074 146.881 106.858 146.902 106.712 146.781L106.616 146.701C106.47 146.58 106.449 146.363 106.57 146.217Z" fill="white"/>
<path d="M107.857 146.838C107.711 146.717 107.495 146.737 107.375 146.884C107.254 147.03 107.275 147.247 107.421 147.368L110.352 149.798C110.498 149.919 110.714 149.898 110.834 149.751C110.955 149.605 110.934 149.388 110.788 149.267L107.857 146.838Z" fill="white"/>
<path d="M106.376 147.435C106.496 147.288 106.712 147.268 106.858 147.389L106.954 147.468C107.1 147.589 107.121 147.806 107 147.953C106.88 148.099 106.664 148.12 106.518 147.999L106.422 147.919C106.276 147.798 106.255 147.581 106.376 147.435Z" fill="white"/>
<path d="M107.663 148.056C107.517 147.935 107.301 147.956 107.181 148.102C107.06 148.248 107.081 148.465 107.227 148.586L109.197 150.219C109.343 150.34 109.559 150.319 109.679 150.173C109.8 150.026 109.779 149.81 109.633 149.689L107.663 148.056Z" fill="white"/>
<path d="M105.926 148.441C106.047 148.295 106.263 148.274 106.409 148.395L106.505 148.475C106.651 148.596 106.671 148.813 106.551 148.959C106.43 149.106 106.214 149.126 106.068 149.005L105.972 148.926C105.826 148.805 105.806 148.588 105.926 148.441Z" fill="white"/>
<path d="M107.196 149.047C107.05 148.926 106.834 148.947 106.713 149.094C106.592 149.24 106.613 149.457 106.759 149.578L108.297 150.852C108.443 150.973 108.659 150.953 108.779 150.806C108.9 150.66 108.879 150.443 108.733 150.322L107.196 149.047Z" fill="white"/>
</g>
<g filter="url(#filter2_di_20662_18597)">
<path d="M95.7545 137.741C95.875 137.594 96.0911 137.573 96.237 137.694C96.383 137.815 96.4036 138.032 96.283 138.179L96.0846 138.42C95.964 138.566 95.748 138.587 95.602 138.466C95.456 138.345 95.4355 138.128 95.556 137.982L95.7545 137.741Z" fill="#FE4F46"/>
<path d="M97.879 137.271C97.7331 137.15 97.517 137.17 97.3964 137.317L95.4517 139.68C95.3311 139.826 95.3517 140.043 95.4977 140.164C95.6436 140.285 95.8597 140.264 95.9802 140.118L97.925 137.755C98.0456 137.609 98.025 137.392 97.879 137.271Z" fill="#FE4F46"/>
<path d="M97.7684 138.436C97.8889 138.29 98.105 138.269 98.2509 138.39C98.3969 138.511 98.4175 138.728 98.2969 138.874L97.1459 140.273C97.0254 140.419 96.8093 140.44 96.6634 140.319C96.5174 140.198 96.4968 139.981 96.6174 139.835L97.7684 138.436Z" fill="#FE4F46"/>
<path d="M99.7739 138.111C99.6279 137.99 99.4118 138.011 99.2913 138.157L96.6321 141.388C96.5115 141.535 96.5321 141.752 96.6781 141.873C96.824 141.994 97.0401 141.973 97.1607 141.826L99.8198 138.595C99.9404 138.449 99.9198 138.232 99.7739 138.111Z" fill="#FE4F46"/>
<path d="M98.9885 140.097C99.1091 139.95 99.3251 139.929 99.4711 140.05C99.617 140.171 99.6376 140.388 99.5171 140.535L99.0011 141.162C98.8805 141.308 98.6645 141.329 98.5185 141.208C98.3726 141.087 98.352 140.87 98.4725 140.723L98.9885 140.097Z" fill="#FE4F46"/>
<path d="M100.081 140.88C99.9352 140.76 99.7191 140.78 99.5986 140.927L99.4001 141.168C99.2795 141.314 99.3001 141.531 99.4461 141.652C99.5921 141.773 99.8081 141.752 99.9287 141.606L100.127 141.365C100.248 141.218 100.227 141.001 100.081 140.88Z" fill="#FE4F46"/>
</g>
<path d="M105.365 141.289C103.313 143.361 102.932 143.48 101.217 142.596C102.406 144.119 102.36 144.515 100.721 146.931C102.774 144.858 103.154 144.739 104.869 145.623C103.68 144.1 103.725 143.703 105.365 141.289Z" fill="white"/>
<path d="M107.476 142.03C107.179 142.634 107.192 142.826 107.565 143.347C106.985 143.077 106.794 143.101 106.26 143.508C106.557 142.904 106.544 142.712 106.17 142.191C106.75 142.46 106.943 142.437 107.476 142.03Z" fill="white"/>
<path d="M78.9969 135.323C78.4305 134.186 78.0867 133.01 78.0456 131.865C77.9557 129.318 79.2307 126.755 81.4489 125.889C81.8012 125.751 82.1774 125.656 82.5748 125.611C83.5283 125.502 84.5679 125.493 85.6004 125.653C86.8327 125.838 88.0538 126.266 89.0932 127.049C89.1136 127.063 89.1324 127.078 89.1512 127.093C89.547 127.398 89.9315 127.738 90.2997 128.104L90.3018 128.108C91.5609 129.361 92.6453 130.921 93.4815 132.478C93.6256 132.743 93.7602 133.008 93.887 133.271C93.9218 133.342 93.9566 133.412 93.9898 133.484C94.3227 134.191 94.5764 134.904 94.7409 135.605C95.1337 137.278 95.0287 138.884 94.3424 140.17C94.0347 140.746 93.6093 141.256 93.0604 141.681C92.6775 141.976 92.2323 142.228 91.7244 142.432C89.2127 143.437 85.977 142.375 83.2823 140.345L83.2812 140.343" fill="white"/>
<path d="M78.9969 135.323C78.4305 134.186 78.0867 133.01 78.0456 131.865C77.9557 129.318 79.2307 126.755 81.4489 125.889C81.8012 125.751 82.1774 125.656 82.5748 125.611C83.5283 125.502 84.5679 125.493 85.6004 125.653C86.8327 125.838 88.0538 126.266 89.0932 127.049C89.1136 127.063 89.1324 127.078 89.1512 127.093C89.547 127.398 89.9315 127.738 90.2997 128.104L90.3018 128.108C91.5609 129.361 92.6453 130.921 93.4815 132.478C93.6256 132.743 93.7602 133.008 93.887 133.271C93.9218 133.342 93.9566 133.412 93.9898 133.484C94.3227 134.191 94.5764 134.904 94.7409 135.605C95.1337 137.278 95.0287 138.884 94.3424 140.17C94.0347 140.746 93.6093 141.256 93.0604 141.681C92.6775 141.976 92.2323 142.228 91.7244 142.432C89.2127 143.437 85.977 142.375 83.2823 140.345L83.2812 140.343" stroke="black" stroke-width="2.20114" stroke-miterlimit="10"/>
<path d="M76.3482 149.102C76.2488 149.079 76.4485 149.127 76.3482 149.102C78.7329 149.659 80.9949 149.577 82.6063 148.571C82.6636 148.534 82.7197 148.501 82.7717 148.463C85.2903 146.744 85.3661 143.868 83.859 141.046L83.858 141.044C83.6778 140.706 83.4728 140.368 83.2478 140.034C82.9859 139.64 82.695 139.253 82.374 138.873L82.3729 138.872C82.3052 138.789 82.2359 138.707 82.165 138.626C81.3992 137.75 80.524 136.866 79.5786 136.041C78.2905 134.915 76.8697 133.898 75.4247 133.168C75.2658 133.089 75.1064 133.012 74.9475 132.939C74.9223 132.928 74.8971 132.917 74.8709 132.905C72.3885 131.798 69.6649 132.068 67.5444 132.754C64.6018 133.704 63.7812 137.173 64.8752 140.24C65.6687 142.46 67.6109 144.578 69.99 146.219" fill="white"/>
<path d="M76.3482 149.102C76.2488 149.079 76.4485 149.127 76.3482 149.102ZM76.3482 149.102C78.7329 149.659 80.9949 149.577 82.6063 148.571C82.6636 148.534 82.7197 148.501 82.7717 148.463C85.2903 146.744 85.3661 143.868 83.859 141.046L83.858 141.044C83.6778 140.706 83.4728 140.368 83.2478 140.034C82.9859 139.64 82.695 139.253 82.374 138.873L82.3729 138.872C82.3052 138.789 82.2359 138.707 82.165 138.626C81.3992 137.75 80.524 136.866 79.5786 136.041C78.2905 134.915 76.8697 133.898 75.4247 133.168C75.2658 133.089 75.1064 133.012 74.9475 132.939C74.9223 132.928 74.8971 132.917 74.8709 132.905C72.3885 131.798 69.6649 132.068 67.5444 132.754C64.6018 133.704 63.7812 137.173 64.8752 140.24C65.6687 142.46 67.6109 144.578 69.99 146.219" stroke="black" stroke-width="2.20114" stroke-miterlimit="10"/>
<path d="M74.2252 160.54C74.1369 160.52 74.3145 160.561 74.2252 160.54C76.3516 160.999 78.3176 160.888 79.6371 159.958C79.685 159.927 79.7292 159.893 79.7734 159.859C81.8254 158.276 81.6488 155.695 80.0958 153.189C79.9101 152.887 79.7033 152.588 79.4789 152.293C79.2173 151.945 78.9313 151.602 78.6188 151.266C78.5527 151.193 78.4849 151.121 78.4166 151.051C77.6737 150.277 76.8367 149.499 75.9441 148.776C74.7257 147.788 73.4012 146.899 72.0801 146.268C71.9344 146.199 71.7883 146.132 71.6452 146.07C71.6225 146.06 71.5993 146.052 71.5756 146.041C69.3169 145.089 66.9666 145.377 65.1743 146.026C62.6885 146.928 62.2651 150.055 63.478 152.785C64.3572 154.764 68.0217 158.64 74.2289 160.542" fill="white"/>
<path d="M74.2252 160.54C74.1369 160.52 74.3145 160.561 74.2252 160.54ZM74.2252 160.54C76.3516 160.999 78.3176 160.888 79.6371 159.958C79.685 159.927 79.7292 159.893 79.7734 159.859C81.8254 158.276 81.6488 155.695 80.0958 153.189C79.9101 152.887 79.7033 152.588 79.4789 152.293C79.2173 151.945 78.9313 151.602 78.6188 151.266C78.5527 151.193 78.4849 151.121 78.4166 151.051C77.6737 150.277 76.8367 149.499 75.9441 148.776C74.7257 147.788 73.4012 146.899 72.0801 146.268C71.9344 146.199 71.7883 146.132 71.6452 146.07C71.6225 146.06 71.5993 146.052 71.5756 146.041C69.3169 145.089 66.9666 145.377 65.1743 146.026C62.6885 146.928 62.2651 150.055 63.478 152.785C64.3572 154.764 68.0217 158.64 74.2289 160.542" stroke="black" stroke-width="2.20114" stroke-miterlimit="10"/>
<path d="M269.043 141.754C275.388 142.75 282.111 138.211 283.572 131.942C283.994 130.123 283.962 128.043 282.787 126.6C281.612 125.157 279.013 124.878 277.991 126.439C277.235 127.592 277.637 129.212 278.554 130.236C279.926 131.768 282.208 132.228 284.223 131.841C286.239 131.454 288.042 130.337 289.695 129.116C291.24 127.975 292.793 126.592 293.236 124.721C293.678 122.85 292.781 119.206 290.492 120.553C289.373 121.73 289.88 123.826 291.156 124.83C292.431 125.834 294.169 125.999 295.791 125.931C300.78 125.721 305.672 123.653 309.301 120.214" stroke="#534093" stroke-width="0.981909" stroke-miterlimit="10" stroke-linecap="round"/>
<path d="M139.433 51.2096C143.766 51.4802 148.357 50.2412 149.354 48.5312C149.643 48.0352 149.621 47.4679 148.818 47.0745C148.016 46.681 146.241 46.6055 145.543 47.0312C145.026 47.3458 145.301 47.7877 145.928 48.0669C146.865 48.4845 148.423 48.6095 149.799 48.5036C151.176 48.3977 152.407 48.0929 153.536 47.7595C154.591 47.4481 155.652 47.0707 155.954 46.5605C156.256 46.0502 155.643 45.0564 154.08 45.424C153.316 45.7452 153.662 46.3169 154.533 46.5905C155.404 46.8641 156.591 46.9089 157.699 46.8899C161.106 46.832 164.447 46.2672 166.925 45.3287" stroke="#76AFFF" stroke-width="0.981909" stroke-miterlimit="10" stroke-linecap="round"/>
<path d="M132.681 142.28C132.499 142.194 132.558 141.944 132.762 141.957L138.145 142.256C140.081 142.363 142.013 140.807 142.876 138.443L144.783 133.215C144.853 133.019 145.176 133.103 145.147 133.309L144.291 138.81C143.904 141.297 144.841 143.595 146.587 144.445L151.443 146.803C151.624 146.894 151.558 147.139 151.357 147.125L146.054 146.743C144.098 146.602 142.137 148.166 141.266 150.561L139.34 155.86C139.271 156.056 138.944 155.974 138.976 155.766L139.851 150.194C140.246 147.676 139.286 145.354 137.506 144.527L132.683 142.283L132.681 142.28Z" fill="white"/>
<path d="M195.91 9.43392C195.772 9.43794 195.732 9.26727 195.86 9.21214L199.237 7.74391C200.451 7.21537 201.157 5.67283 200.963 3.9653L200.535 0.189379C200.518 0.0485635 200.741 0.000535771 200.786 0.135349L201.939 3.75518C202.46 5.39218 203.732 6.50711 205.057 6.49072L208.738 6.44074C208.877 6.44021 208.911 6.61026 208.784 6.66327L205.431 8.05677C204.194 8.5702 203.474 10.127 203.672 11.8555L204.11 15.6804C204.127 15.8212 203.903 15.8714 203.859 15.7344L202.696 12.0656C202.17 10.4076 200.877 9.28459 199.539 9.32572L195.912 9.43529L195.91 9.43392Z" fill="white"/>
<path d="M224.306 111.097C224.177 111.093 224.148 110.931 224.272 110.885L227.523 109.682C228.692 109.249 229.435 107.836 229.342 106.22L229.137 102.648C229.128 102.514 229.34 102.481 229.376 102.61L230.271 106.074C230.675 107.64 231.813 108.755 233.06 108.809L236.524 108.956C236.654 108.962 236.677 109.124 236.555 109.167L233.33 110.301C232.14 110.719 231.382 112.145 231.478 113.781L231.691 117.4C231.7 117.533 231.486 117.568 231.452 117.437L230.55 113.927C230.142 112.341 228.984 111.217 227.724 111.185L224.308 111.098L224.306 111.097Z" fill="white"/>
<path d="M142.055 116.545C142.002 116.517 142.024 116.444 142.084 116.451L143.68 116.634C144.253 116.7 144.855 116.271 145.153 115.583L145.811 114.063C145.835 114.005 145.93 114.036 145.917 114.097L145.567 115.717C145.409 116.45 145.647 117.15 146.152 117.433L147.554 118.22C147.607 118.25 147.583 118.321 147.523 118.314L145.953 118.107C145.374 118.031 144.763 118.462 144.463 119.158L143.798 120.7C143.774 120.757 143.678 120.727 143.691 120.666L144.049 119.024C144.21 118.283 143.965 117.575 143.45 117.298L142.055 116.546L142.055 116.545Z" fill="white"/>
<path d="M290.376 97.3583C290.314 97.3198 290.346 97.2331 290.419 97.2465L292.33 97.5901C293.017 97.7133 293.776 97.2421 294.187 96.4351L295.097 94.6505C295.13 94.5835 295.242 94.6277 295.223 94.7002L294.677 96.6285C294.43 97.5004 294.664 98.3627 295.252 98.7436L296.884 99.7998C296.945 99.8401 296.911 99.9249 296.839 99.911L294.961 99.5415C294.268 99.4049 293.499 99.8779 293.083 100.695L292.163 102.505C292.13 102.572 292.017 102.528 292.037 102.455L292.593 100.502C292.844 99.6196 292.602 98.7473 292.002 98.3736L290.377 97.3596L290.376 97.3583Z" fill="white"/>
<path d="M275.4 72.5841C275.361 72.5551 275.386 72.498 275.435 72.5106L276.709 72.8355C277.168 72.9521 277.703 72.6705 278.02 72.1452L278.72 70.9837C278.746 70.9401 278.82 70.9754 278.803 71.0234L278.341 72.2997C278.132 72.8768 278.249 73.4708 278.628 73.7566L279.68 74.5494C279.719 74.5796 279.692 74.6352 279.644 74.6224L278.393 74.2816C277.931 74.1556 277.389 74.4379 277.068 74.9701L276.36 76.1478C276.334 76.1914 276.26 76.1564 276.277 76.1081L276.747 74.8157C276.959 74.2316 276.838 73.6306 276.45 73.3489L275.401 72.585L275.4 72.5841Z" fill="white"/>
<path d="M207.091 60.3919C207.012 60.3621 207.029 60.2563 207.115 60.2551L209.362 60.2133C210.17 60.1979 210.926 59.4911 211.212 58.4814L211.845 56.2487C211.868 56.1651 212.005 56.19 211.999 56.2767L211.812 58.5902C211.727 59.6365 212.187 60.5629 212.94 60.8626L215.031 61.6931C215.109 61.7251 215.089 61.8292 215.005 61.8294L212.789 61.8347C211.971 61.8362 211.203 62.5475 210.915 63.5701L210.277 65.8329C210.254 65.9165 210.116 65.8925 210.122 65.8049L210.315 63.4612C210.402 62.4021 209.932 61.466 209.166 61.1772L207.092 60.3932L207.091 60.3919Z" fill="white"/>
<path d="M116.537 86.0979C117.594 86.8484 117.848 88.3074 117.104 89.3633C116.36 90.4191 114.905 90.6658 113.848 89.9153C112.791 89.1648 112.538 87.7058 113.282 86.6499C114.026 85.594 115.48 85.3474 116.537 86.0979Z" fill="white"/>
<ellipse cx="200.966" cy="145.048" rx="4.90954" ry="4.92676" fill="#D2E6FF"/>
<ellipse cx="221.911" cy="121.199" rx="2.94573" ry="2.95606" fill="white"/>
<ellipse cx="156.613" cy="76.3657" rx="1.47286" ry="1.47803" fill="white"/>
<ellipse cx="259.223" cy="5.91309" rx="2.94573" ry="2.95606" fill="#D2E6FF"/>
<ellipse cx="244.495" cy="20.6934" rx="1.96382" ry="1.97071" fill="white"/>
<path d="M219.695 219.534C220.141 219.475 220.681 219.528 221.359 219.689C227.97 221.245 234.172 224.447 241.052 224.771C248.953 225.136 256.938 223.876 264.335 221.058C268.078 219.629 271.692 217.799 275.566 216.741C279.44 215.682 283.708 215.458 287.333 217.18C290.958 218.902 293.645 222.974 292.856 226.923C291.925 231.559 287.012 234.143 282.546 235.659C265.659 241.344 245.019 242.081 228.762 234.025C225.506 232.417 222.166 230.234 220.089 227.176C218.72 225.151 216.487 219.888 219.695 219.534Z" fill="#5A7BFF"/>
<ellipse cx="294.083" cy="206.431" rx="4.41859" ry="4.43409" fill="#5A7BFF"/>
<rect width="30.8405" height="30.8243" rx="5.06269" transform="matrix(0.817515 0.57441 -0.572703 0.820814 264.322 82.9814)" fill="#FFE499"/>
<rect width="2.57003" height="2.5687" rx="1.28435" transform="matrix(0.824969 0.563582 -0.561903 0.828292 264.031 87.6797)" fill="black"/>
<rect width="20.2916" height="1.69008" rx="0.84504" transform="matrix(0.817515 0.57441 -0.572703 0.820814 267.486 90.6123)" fill="black"/>
<rect width="11.8368" height="1.69008" rx="0.84504" transform="matrix(0.817515 0.57441 -0.572703 0.820814 263.908 95.7363)" fill="black"/>
<rect width="16.9097" height="1.69008" rx="0.84504" transform="matrix(0.817515 0.57441 -0.572703 0.820814 260.039 101.292)" fill="black"/>
<rect width="15.2187" height="1.69008" rx="0.84504" transform="matrix(0.817515 0.57441 -0.572703 0.820814 256.461 106.417)" fill="black"/>
<rect width="2.57003" height="2.5687" rx="1.28435" transform="matrix(0.824969 0.563582 -0.561903 0.828292 260.436 92.9707)" fill="black"/>
<rect width="2.57003" height="2.5687" rx="1.28435" transform="matrix(0.824969 0.563582 -0.561903 0.828292 256.828 98.3018)" fill="black"/>
<rect width="2.57003" height="2.5687" rx="1.28435" transform="matrix(0.824969 0.563582 -0.561903 0.828292 253.217 103.629)" fill="black"/>
<rect width="16.06" height="22.2717" rx="1.23418" transform="matrix(0.998784 -0.0221347 0.0220229 1.00072 173.887 48.3516)" fill="white"/>
<rect width="16.061" height="22.2702" rx="1.23418" transform="matrix(0.973113 -0.226575 0.225461 0.97513 163.605 52.7578)" fill="#5A7BFF"/>
<path d="M244.529 150.752C249.409 153.621 255.837 151.944 258.701 147.038C261.56 142.141 259.871 135.681 254.991 132.812C250.103 129.938 243.688 131.634 240.829 136.531C237.965 141.436 239.641 147.878 244.529 150.752ZM244.341 143.839C244.243 143.781 244.158 143.705 244.089 143.615C244.021 143.524 243.971 143.421 243.942 143.311C243.913 143.2 243.907 143.086 243.922 142.973C243.938 142.86 243.975 142.752 244.033 142.654C244.151 142.452 244.341 142.327 244.558 142.278L248.708 141.175L247.638 137.003C247.603 136.897 247.591 136.784 247.603 136.673C247.615 136.562 247.651 136.455 247.708 136.359C247.943 135.955 248.467 135.825 248.879 136.067C249.08 136.185 249.209 136.368 249.259 136.586L250.352 140.759L254.538 139.678C254.779 139.607 254.978 139.629 255.171 139.743C255.582 139.985 255.72 140.515 255.484 140.919C255.366 141.121 255.198 141.247 254.967 141.3L250.794 142.401L251.884 146.561C251.933 146.779 251.918 147.007 251.795 147.217C251.738 147.316 251.662 147.402 251.571 147.47C251.481 147.539 251.378 147.589 251.268 147.618C251.159 147.647 251.044 147.653 250.932 147.638C250.82 147.622 250.712 147.584 250.614 147.527C250.517 147.47 250.433 147.394 250.367 147.304C250.3 147.215 250.252 147.112 250.225 147.003L249.146 142.826L244.995 143.928C244.886 143.958 244.771 143.966 244.659 143.951C244.546 143.936 244.438 143.897 244.341 143.839Z" fill="white"/>
<path d="M225.181 134.569C226.569 132.191 228.842 130.463 231.5 129.767C234.158 129.07 236.982 129.462 239.352 130.855C241.722 132.249 243.443 134.53 244.137 137.197C244.831 139.864 244.441 142.698 243.052 145.076C241.664 147.455 239.391 149.182 236.733 149.878C234.076 150.575 231.251 150.183 228.881 148.79C226.511 147.397 224.79 145.115 224.096 142.448C223.402 139.782 223.792 136.947 225.181 134.569ZM239.262 140.689C239.394 140.655 239.517 140.594 239.626 140.512C239.734 140.429 239.826 140.326 239.894 140.208C239.963 140.09 240.008 139.96 240.027 139.825C240.046 139.689 240.038 139.552 240.003 139.419C239.969 139.287 239.909 139.163 239.826 139.054C239.744 138.945 239.641 138.854 239.524 138.784C239.406 138.715 239.277 138.67 239.142 138.652C239.007 138.633 238.87 138.641 238.738 138.675L232.654 140.271L231.807 137.01C231.773 136.878 231.713 136.754 231.631 136.645C231.548 136.536 231.446 136.444 231.328 136.375C231.211 136.306 231.081 136.261 230.946 136.242C230.811 136.223 230.674 136.231 230.542 136.266C230.41 136.3 230.286 136.361 230.178 136.443C230.069 136.526 229.978 136.629 229.909 136.747C229.84 136.865 229.795 136.995 229.777 137.13C229.758 137.266 229.766 137.403 229.801 137.536L230.911 141.802C230.945 141.934 231.005 142.059 231.087 142.168C231.169 142.277 231.272 142.368 231.39 142.437C231.507 142.507 231.637 142.552 231.772 142.57C231.907 142.589 232.044 142.581 232.176 142.546L239.262 140.689Z" fill="#2C57FF"/>
<path d="M259.984 54.8965L266.508 56.4855" stroke="#F8944C" stroke-width="1.53565" stroke-linecap="round"/>
<path d="M261.959 45.705L268.913 45.306" stroke="#FBFF89" stroke-width="1.53565" stroke-linecap="round"/>
<rect width="17.9539" height="7.83226" rx="3.91613" transform="matrix(0.989276 0.146059 -0.145061 0.989423 240.18 42.5625)" fill="white"/>
<path d="M279.281 42.8021L273.064 41.8842C271.244 41.6155 269.552 42.8738 269.285 44.6943C269.018 46.515 270.277 48.209 272.098 48.4778L278.314 49.3957C280.135 49.6643 281.827 48.4062 282.094 46.5855C282.361 44.765 281.101 43.071 279.281 42.8021Z" fill="#FBFF89" stroke="#C0E2FF" stroke-width="0.490954"/>
<path d="M276.658 55.4144L270.441 54.4965C268.621 54.2278 266.929 55.4861 266.662 57.3066C266.395 59.1274 267.654 60.8213 269.475 61.0901L275.691 62.008C277.512 62.2766 279.204 61.0185 279.471 59.1978C279.738 57.3773 278.478 55.6833 276.658 55.4144Z" fill="#F8944C" stroke="#C0E2FF" stroke-width="0.490954"/>
<path d="M255.269 56.3247C254.774 59.1493 255.137 65.0258 260.547 65.9359" stroke="url(#paint2_linear_20662_18597)" stroke-width="1.53565" stroke-linecap="round"/>
<path d="M257.71 41.5271C258.167 38.9635 261.218 33.5262 265.809 33.7867" stroke="#FF9BF8" stroke-width="1.53565" stroke-linecap="round"/>
<rect x="-0.278454" y="0.207027" width="12.948" height="6.66386" rx="3.33193" transform="matrix(-0.989276 -0.146059 -0.145061 0.989423 278.533 31.9605)" fill="#FF9BF8" stroke="#C0E2FF" stroke-width="0.490954"/>
<path d="M270.387 64.6481L264.184 63.639C262.368 63.3436 260.658 64.5769 260.364 66.3934C260.071 68.21 261.305 69.9223 263.122 70.2177L269.324 71.2268C271.141 71.5221 272.851 70.2889 273.145 68.4724C273.438 66.656 272.203 64.9437 270.387 64.6481Z" fill="#386FFC" stroke="#C0E2FF" stroke-width="0.490954"/>
<g filter="url(#filter3_d_20662_18597)">
<ellipse cx="12.6399" cy="12.6691" rx="12.6399" ry="12.6691" transform="matrix(0.98345 0.178466 -0.177433 0.984627 180.717 93.085)" fill="white"/>
</g>
<path d="M189.215 113.632L190.467 110.454L192.521 111.269L191.206 107.072L187.386 109.231L189.44 110.047L188.188 113.224L185.62 112.205L185.63 112.179C185.542 112.15 185.451 112.139 185.363 112.103C184.341 111.698 183.527 110.891 183.098 109.859C182.669 108.827 182.661 107.656 183.077 106.602C183.88 104.564 186.029 103.496 188.036 104.03C188.562 103.19 189.353 102.559 190.274 102.244C191.196 101.929 192.189 101.951 193.085 102.306C193.979 102.661 194.719 103.327 195.177 104.189C195.635 105.051 195.782 106.055 195.593 107.029C197.421 108.018 198.259 110.271 197.456 112.309C197.04 113.363 196.236 114.212 195.22 114.67C194.205 115.128 193.06 115.158 192.038 114.753C191.952 114.718 191.877 114.664 191.792 114.624L191.782 114.651L189.215 113.632Z" fill="#00A5FF"/>
<ellipse cx="11.4243" cy="11.4566" rx="11.4243" ry="11.4566" transform="matrix(0.999018 0.0359246 -0.0356981 0.999697 149.174 13.8857)" fill="url(#paint3_linear_20662_18597)"/>
<g clip-path="url(#clip1_20662_18597)">
<path d="M166.555 22.3301L160.712 20.9353L160.544 19.0366L156.454 18.0602C155.811 17.9068 155.16 18.309 155.007 18.9541L152.922 27.7501C152.769 28.3951 153.17 29.0484 153.813 29.2018L158.488 30.3177L158.655 32.2164L163.914 33.4717C164.557 33.6251 165.208 33.2229 165.361 32.5779L167.446 23.7819C167.599 23.1368 167.198 22.4835 166.555 22.3301ZM156.706 27.4142C155.094 27.0292 154.096 25.4032 154.48 23.7847C154.863 22.1663 156.483 21.1652 158.096 21.5501C158.885 21.7384 159.476 22.1893 159.873 22.7797L158.925 23.3403C158.753 23.0762 158.426 22.7379 157.847 22.5998C156.831 22.3571 155.807 23.0049 155.561 24.0428C155.315 25.0807 155.938 26.1218 156.955 26.3645C158.13 26.6449 158.815 25.9162 158.996 25.3586L157.29 24.9513L157.528 23.9485L160.263 24.6013C160.26 24.7929 160.248 24.9757 160.191 25.2162C159.793 26.8933 158.395 27.8173 156.706 27.4142ZM161.065 25.0965L163.227 25.6126C162.802 26.2856 162.241 26.8827 161.547 27.3614C161.415 27.1129 161.296 26.8555 161.197 26.5964L161.065 25.0965ZM164.554 32.0755C164.478 32.398 164.152 32.5991 163.831 32.5224L160.032 31.6157L161.549 30.4287L161.372 28.4658L162.752 30.716L163.418 30.3049L161.941 27.9388L161.956 27.9298C162.79 27.3544 163.457 26.6216 163.945 25.79L165.055 26.055L165.236 25.2927L162.588 24.6608L162.768 23.9044L162.014 23.7244L161.835 24.4809L160.993 24.28L160.772 21.879L166.055 23.14C166.376 23.2167 166.576 23.5433 166.5 23.8658L164.554 32.0755Z" fill="url(#paint4_linear_20662_18597)"/>
</g>
<g filter="url(#filter4_d_20662_18597)">
<ellipse cx="309.221" cy="70.8664" rx="17.7796" ry="17.842" fill="white"/>
<path d="M316.779 67.943L316.553 68.4755C316.518 68.5622 316.458 68.6363 316.382 68.6884C316.306 68.7405 316.217 68.7683 316.125 68.7683C316.034 68.7683 315.944 68.7405 315.868 68.6884C315.792 68.6363 315.733 68.5622 315.697 68.4755L315.472 67.943C315.076 67.0009 314.35 66.2455 313.438 65.826L312.742 65.507C312.658 65.4672 312.586 65.4033 312.536 65.323C312.486 65.2427 312.459 65.1494 312.459 65.054C312.459 64.9586 312.486 64.8653 312.536 64.785C312.586 64.7047 312.658 64.6408 312.742 64.601L313.399 64.3008C314.334 63.8693 315.072 63.086 315.462 62.1123L315.694 61.5375C315.728 61.4484 315.787 61.3719 315.864 61.3181C315.941 61.2642 316.032 61.2354 316.125 61.2354C316.218 61.2354 316.309 61.2642 316.386 61.3181C316.463 61.3719 316.523 61.4484 316.557 61.5375L316.789 62.1114C317.178 63.0853 317.916 63.8689 318.85 64.3008L319.508 64.6019C319.593 64.6419 319.664 64.7057 319.714 64.7859C319.764 64.8661 319.79 64.9593 319.79 65.0545C319.79 65.1496 319.764 65.2428 319.714 65.323C319.664 65.4032 319.593 65.4671 319.508 65.507L318.812 65.825C317.9 66.245 317.175 67.0007 316.779 67.943ZM316.125 70.6452C316.747 70.6457 317.365 70.5378 317.952 70.3262C317.956 70.4329 317.958 70.5392 317.958 70.6452C317.958 72.6415 317.186 74.556 315.811 75.9676C314.436 77.3792 312.571 78.1722 310.627 78.1722V81.4653C306.045 79.5835 299.631 76.7609 299.631 70.6452C299.631 68.6489 300.403 66.7343 301.778 65.3228C303.153 63.9112 305.017 63.1181 306.962 63.1181H310.627C310.731 63.1181 310.834 63.1203 310.938 63.1247C310.646 63.9761 310.557 64.8871 310.678 65.7811C310.8 66.675 311.129 67.5261 311.637 68.2627C312.145 68.9993 312.818 69.6001 313.599 70.0147C314.38 70.4292 315.246 70.6454 316.125 70.6452Z" fill="#1072CF"/>
</g>
<ellipse cx="10.8191" cy="10.8565" rx="10.8191" ry="10.8565" transform="matrix(0.9962 -0.0870974 0.0864941 0.996252 115.865 57.0654)" fill="url(#paint5_radial_20662_18597)"/>
<path d="M127.401 70.9543C127.78 70.9212 128.089 70.7631 128.325 70.48C128.562 70.1969 128.664 69.8651 128.631 69.4846L128.435 67.2313L130.232 67.0742L130.127 65.8725L127.732 66.0819L127.935 68.4103C127.818 68.3397 127.696 68.2923 127.568 68.2679C127.44 68.2436 127.307 68.2377 127.166 68.2504C126.787 68.2835 126.479 68.4416 126.242 68.7247C126.006 69.0078 125.904 69.3396 125.937 69.7201C125.97 70.1007 126.127 70.4098 126.409 70.6475C126.691 70.8852 127.022 70.9875 127.401 70.9543ZM124.714 73.0056C124.384 73.0344 124.092 72.9415 123.837 72.7268C123.583 72.5122 123.441 72.2394 123.412 71.9086L122.577 62.2945C122.548 61.964 122.641 61.671 122.855 61.4153C123.07 61.1596 123.341 61.0172 123.67 60.9881L128.46 60.5693L132.366 63.8604L132.992 71.071C133.021 71.4014 132.928 71.6947 132.714 71.9507C132.5 72.2068 132.229 72.349 131.899 72.3774L124.714 73.0056ZM128.227 64.8278L131.221 64.566L127.966 61.8234L128.227 64.8278Z" fill="#009DFF"/>
<g filter="url(#filter5_d_20662_18597)">
<ellipse cx="13.7302" cy="13.7778" rx="13.7302" ry="13.7778" transform="matrix(0.995238 0.0975958 -0.097081 0.995264 204.008 20.8232)" fill="white"/>
<path d="M215.909 43.1302C214.923 43.071 214.003 42.8249 213.148 42.392C212.293 41.959 211.557 41.3942 210.942 40.6976C210.326 40.001 209.855 39.201 209.528 38.2975C209.202 37.3941 209.068 36.4477 209.127 35.4584C209.187 34.4571 209.432 33.5305 209.863 32.6789C210.294 31.8272 210.857 31.0921 211.551 30.4737C212.245 29.8553 213.043 29.3825 213.943 29.0554C214.843 28.7283 215.786 28.5941 216.772 28.6528C217.77 28.7127 218.693 28.959 219.543 29.3916C220.392 29.8242 221.124 30.3888 221.739 31.0854C222.355 31.782 222.826 32.5791 223.153 33.4768C223.48 34.3745 223.614 35.3238 223.554 36.3246C223.495 37.3139 223.25 38.2375 222.818 39.0955C222.387 39.9534 221.824 40.6916 221.13 41.31C220.435 41.9285 219.641 42.4014 218.747 42.7289C217.852 43.0563 216.906 43.1901 215.909 43.1302ZM215.997 41.6463C216.336 41.2307 216.633 40.7945 216.89 40.3377C217.146 39.8809 217.362 39.3914 217.538 38.8693L214.797 38.7047C214.91 39.2442 215.066 39.7561 215.267 40.2403C215.467 40.7245 215.711 41.1932 215.997 41.6463ZM214.139 41.2441C213.946 40.833 213.782 40.4083 213.645 39.97C213.509 39.5318 213.4 39.0804 213.318 38.6159L211.191 38.4881C211.503 39.1123 211.908 39.6633 212.404 40.1411C212.901 40.6189 213.479 40.9866 214.139 41.2441ZM217.89 41.4693C218.576 41.2926 219.194 40.9967 219.744 40.5818C220.294 40.1668 220.761 39.6681 221.145 39.0858L219.017 38.9581C218.882 39.41 218.72 39.8454 218.532 40.2642C218.345 40.683 218.131 41.0847 217.89 41.4693ZM210.664 37.0036L213.116 37.1509C213.095 36.9074 213.082 36.6676 213.078 36.4315C213.074 36.1955 213.08 35.9505 213.094 35.6966C213.109 35.4428 213.133 35.1991 213.165 34.9657C213.198 34.7323 213.239 34.4955 213.289 34.2554L210.836 34.1081C210.762 34.3458 210.703 34.5815 210.659 34.8152C210.615 35.0489 210.585 35.2922 210.57 35.545C210.554 35.7979 210.555 36.0432 210.571 36.281C210.588 36.5189 210.619 36.7597 210.664 37.0036ZM214.559 37.2375L217.949 37.441C218 37.2019 218.041 36.9654 218.073 36.7315C218.106 36.4975 218.129 36.2537 218.144 35.9998C218.158 35.7459 218.164 35.5012 218.16 35.2656C218.156 35.03 218.143 34.79 218.122 34.5456L214.732 34.342C214.681 34.5811 214.64 34.8179 214.608 35.0523C214.576 35.2868 214.553 35.5304 214.537 35.7832C214.521 36.0361 214.516 36.2811 214.521 36.5182C214.525 36.7553 214.538 36.995 214.559 37.2375ZM219.392 37.5276L221.844 37.6749C221.919 37.4372 221.978 37.2018 222.023 36.9686C222.067 36.7354 222.096 36.4919 222.111 36.238C222.126 35.9841 222.125 35.739 222.11 35.5027C222.095 35.2665 222.064 35.0253 222.017 34.7794L219.565 34.6322C219.586 34.8756 219.599 35.1157 219.603 35.3522C219.608 35.5888 219.602 35.8336 219.586 36.0864C219.571 36.3392 219.547 36.5831 219.515 36.818C219.483 37.053 219.442 37.2895 219.392 37.5276ZM219.362 33.1671L221.49 33.2949C221.178 32.6707 220.773 32.1198 220.277 31.642C219.781 31.1642 219.203 30.7965 218.542 30.5389C218.734 30.95 218.899 31.3747 219.036 31.813C219.173 32.2513 219.282 32.7027 219.362 33.1671ZM215.142 32.9137L217.884 33.0783C217.771 32.5388 217.614 32.027 217.414 31.5427C217.214 31.0585 216.97 30.5898 216.684 30.1368C216.345 30.5523 216.048 30.9885 215.791 31.4453C215.535 31.9021 215.318 32.3916 215.142 32.9137ZM211.536 32.6972L213.664 32.825C213.799 32.373 213.961 31.9376 214.149 31.5189C214.337 31.1001 214.551 30.6984 214.791 30.3137C214.105 30.4904 213.487 30.7863 212.937 31.2013C212.387 31.6162 211.92 32.1149 211.536 32.6972Z" fill="#06A6C2"/>
</g>
<g filter="url(#filter6_d_20662_18597)">
<ellipse cx="9.92575" cy="9.9554" rx="9.92575" ry="9.9554" transform="matrix(0.962019 0.272982 -0.271218 0.962518 150.723 84.7412)" fill="url(#paint6_radial_20662_18597)"/>
<g clip-path="url(#clip2_20662_18597)">
<path d="M162.971 95.9724C162.974 95.7455 162.918 95.522 162.809 95.3241C162.699 95.1263 162.541 94.961 162.348 94.8447C161.644 94.4174 158.57 93.5453 158.57 93.5453C158.57 93.5453 155.494 92.6794 154.671 92.6733C154.447 92.6712 154.225 92.7285 154.029 92.8396C153.832 92.9508 153.668 93.1118 153.552 93.3067C152.935 94.6129 152.256 96.6778 152.212 98.0875C152.209 98.3144 152.265 98.5379 152.374 98.7358C152.483 98.9336 152.642 99.0989 152.835 99.2152C153.539 99.6424 156.613 100.515 156.613 100.515C156.613 100.515 159.687 101.387 160.51 101.393C160.734 101.395 160.956 101.338 161.152 101.227C161.349 101.115 161.513 100.954 161.629 100.76C162.259 99.455 162.923 97.3873 162.971 95.9724Z" fill="#FF0000"/>
<path d="M156.202 98.2439L159.172 97.4744L157.043 95.2578L156.202 98.2439Z" fill="white"/>
</g>
</g>
<g filter="url(#filter7_d_20662_18597)">
<ellipse cx="6.99154" cy="6.91345" rx="6.99154" ry="6.91345" transform="matrix(0.918377 0.395706 -0.393373 0.919379 128.178 87.6973)" fill="white"/>
<g clip-path="url(#clip3_20662_18597)">
<path d="M131.962 97.8042C131.752 97.7577 131.586 97.929 131.529 98.1949C131.472 98.4625 131.558 98.6796 131.766 98.7258C131.977 98.7724 132.14 98.6002 132.197 98.3343C132.25 98.0888 132.177 97.8517 131.962 97.8042Z" fill="#3F9CFF"/>
<g filter="url(#filter8_d_20662_18597)">
<path d="M133.492 93.6945L130.764 93.0905C130.583 93.0504 130.394 93.0833 130.239 93.1818C130.084 93.2804 129.975 93.4366 129.937 93.616L128.776 99.0285C128.737 99.2079 128.772 99.3959 128.873 99.5511C128.973 99.7063 129.132 99.816 129.312 99.8561L133.405 100.762C133.585 100.802 133.774 100.769 133.929 100.671C134.085 100.572 134.193 100.416 134.232 100.237L135.103 96.1772L133.492 93.6945ZM130.718 98.5565C130.547 98.644 130.315 98.6517 130.045 98.592C129.883 98.5561 129.771 98.5207 129.695 98.4933L129.983 97.15C130.127 97.1607 130.27 97.1825 130.411 97.2152C130.672 97.2731 130.832 97.3574 130.944 97.4863C131.064 97.6235 131.118 97.8119 131.066 98.0528C131.01 98.3149 130.875 98.4743 130.718 98.5565ZM131.698 98.9669C131.289 98.8763 131.116 98.5169 131.199 98.1272C131.287 97.7176 131.617 97.4698 132.024 97.5599C132.447 97.6536 132.611 98.0191 132.53 98.3966C132.433 98.8447 132.101 99.056 131.698 98.9669ZM133.341 99.0606C133.435 99.0814 133.544 99.0839 133.61 99.0735L133.606 99.3251C133.542 99.3409 133.407 99.3428 133.24 99.3057C132.763 99.2002 132.581 98.8519 132.664 98.4622C132.764 97.9957 133.155 97.8105 133.573 97.9029C133.734 97.9387 133.85 97.9982 133.899 98.0389L133.783 98.2704C133.707 98.2182 133.622 98.1812 133.532 98.1617C133.284 98.1069 133.06 98.2125 132.995 98.5169C132.936 98.7906 133.063 98.999 133.341 99.0606ZM132.984 96.0625L132.643 95.987L133.006 94.2956L134.348 96.3645L132.984 96.0625Z" fill="#3F9CFF"/>
</g>
<path d="M130.393 97.454C130.324 97.4387 130.277 97.4348 130.249 97.435L130.057 98.3298C130.083 98.3418 130.126 98.3513 130.164 98.3598C130.446 98.4244 130.663 98.3111 130.733 97.9844C130.796 97.7007 130.661 97.5134 130.393 97.454Z" fill="#3F9CFF"/>
</g>
</g>
<g filter="url(#filter9_d_20662_18597)">
<ellipse cx="6.68686" cy="6.72317" rx="6.68686" ry="6.72317" transform="matrix(0.641146 0.766968 -0.766219 0.643112 131.871 112.147)" fill="url(#paint7_linear_20662_18597)"/>
<g clip-path="url(#clip4_20662_18597)">
<path d="M134.096 122.618C134.09 122.684 134.058 122.746 134.007 122.789L130.284 125.914C130.177 126.003 130.019 125.99 129.93 125.883L126.715 122.037C126.626 121.931 126.64 121.772 126.747 121.682L131.77 117.467C131.877 117.377 132.035 117.391 132.124 117.497L134.257 120.049C134.3 120.101 134.321 120.167 134.315 120.234L134.096 122.618ZM133.547 122.42L133.738 120.335L132.602 121.289L133.547 122.42ZM130.88 123.053C130.806 122.96 130.718 122.869 130.612 122.77C130.581 122.548 130.623 122.345 130.747 122.122L130.779 122.107L130.816 122.088C130.948 122.022 131.039 121.969 131.123 121.905C131.186 121.857 131.24 121.807 131.283 121.752C131.378 121.638 131.378 121.504 131.299 121.401C131.225 121.305 131.101 121.264 131.002 121.31C130.842 121.384 130.688 121.548 130.458 121.87C130.148 121.967 129.773 122.066 129.551 122.107C129.398 122.043 129.27 121.999 129.149 121.975C128.989 121.942 128.857 121.949 128.759 122.003C128.713 122.028 128.672 122.083 128.653 122.146C128.632 122.218 128.641 122.292 128.685 122.353C128.795 122.508 129.095 122.56 129.599 122.472C129.622 122.486 129.646 122.501 129.676 122.519L129.76 122.571C129.814 122.603 129.852 122.627 129.89 122.65C130.053 122.752 130.171 122.834 130.269 122.917C130.319 123.161 130.422 123.405 130.531 123.536C130.622 123.644 130.739 123.67 130.85 123.622C130.947 123.58 131.022 123.486 131.03 123.394C131.038 123.3 130.983 123.185 130.88 123.053ZM128.859 122.214L128.861 122.212L128.863 122.211C128.894 122.201 128.925 122.194 128.957 122.19C129.018 122.182 129.089 122.183 129.17 122.189C129.214 122.193 129.258 122.198 129.308 122.205C129.319 122.206 129.39 122.217 129.404 122.218L129.523 122.233L129.404 122.249C129.223 122.275 129.082 122.28 128.978 122.269C128.94 122.265 128.91 122.259 128.887 122.252C128.88 122.25 128.873 122.247 128.866 122.244C128.863 122.242 128.86 122.24 128.858 122.238C128.856 122.236 128.854 122.234 128.853 122.231C128.852 122.228 128.852 122.225 128.853 122.222C128.854 122.218 128.856 122.216 128.859 122.214ZM130.809 121.865L130.774 121.871L130.793 121.841C130.837 121.772 130.915 121.683 130.992 121.612C131.08 121.531 131.141 121.492 131.166 121.521C131.199 121.561 131.15 121.634 131.053 121.718C130.968 121.792 130.867 121.854 130.809 121.865L130.809 121.865ZM130.427 122.126L130.459 122.115L130.447 122.146C130.377 122.324 130.346 122.505 130.356 122.668L130.358 122.703L130.33 122.681C130.228 122.6 130.121 122.535 129.965 122.452C129.982 122.461 129.803 122.367 129.759 122.343L129.721 122.321L129.764 122.313C129.956 122.279 130.169 122.216 130.427 122.126L130.427 122.126ZM130.758 123.46C130.7 123.428 130.632 123.312 130.559 123.069L130.541 123.007L130.585 123.053C130.713 123.185 130.788 123.29 130.815 123.366C130.827 123.398 130.829 123.424 130.822 123.442C130.819 123.451 130.813 123.459 130.804 123.463C130.796 123.468 130.786 123.469 130.777 123.466C130.771 123.465 130.764 123.463 130.758 123.46Z" fill="#E73934"/>
</g>
</g>
<g filter="url(#filter10_d_20662_18597)">
<g filter="url(#filter11_i_20662_18597)">
<ellipse cx="15.7885" cy="15.8288" rx="15.7885" ry="15.8288" transform="matrix(0.907207 0.42102 -0.41848 0.908071 218.166 59.8066)" fill="#FF0000"/>
</g>
<g clip-path="url(#clip5_20662_18597)">
<g filter="url(#filter12_d_20662_18597)">
<path d="M225.273 82.3691C226.701 82.8153 228.214 82.0296 228.653 80.6139L229.714 77.1966C230.153 75.7809 229.353 74.272 227.925 73.8258C226.498 73.3797 224.985 74.1653 224.545 75.581L223.484 78.9984C223.045 80.4141 223.846 81.9229 225.273 82.3691ZM231.095 81.3436C231.116 81.2765 231.078 81.2045 231.011 81.1836L230.099 80.8985C230.032 80.8776 229.961 80.9154 229.94 80.9825C229.275 83.1229 227.009 84.3172 224.876 83.6506C222.743 82.9839 221.553 80.7091 222.217 78.5687C222.238 78.5016 222.2 78.4296 222.133 78.4086L221.221 78.1235C221.154 78.1026 221.082 78.1405 221.062 78.2076C220.263 80.7812 221.528 83.5064 223.919 84.5834L223.434 86.1456L221.225 85.4551C221.017 85.39 220.782 85.5559 220.698 85.826L220.528 86.3752C220.507 86.4423 220.533 86.5105 220.584 86.5267L226.781 88.4634C226.832 88.4796 226.892 88.438 226.913 88.3709L227.083 87.8216C227.167 87.5516 227.068 87.2812 226.859 87.2161L224.59 86.5067L225.072 84.9521C227.67 85.4629 230.29 83.9387 231.095 81.3436Z" fill="white"/>
</g>
</g>
</g>
</g>
<defs>
<filter id="filter0_dii_20662_18597" x="93.8759" y="137.207" width="16.0936" height="17.6346" filterUnits="userSpaceOnUse" color-interpolation-filters="sRGB">
<feFlood flood-opacity="0" result="BackgroundImageFix"/>
<feColorMatrix in="SourceAlpha" type="matrix" values="0 0 0 0 0 0 0 0 0 0 0 0 0 0 0 0 0 0 127 0" result="hardAlpha"/>
<feOffset dx="0.201038" dy="0.201038"/>
<feGaussianBlur stdDeviation="0.804154"/>
<feComposite in2="hardAlpha" operator="out"/>
<feColorMatrix type="matrix" values="0 0 0 0 0 0 0 0 0 0 0 0 0 0 0 0 0 0 0.86 0"/>
<feBlend mode="multiply" in2="BackgroundImageFix" result="effect1_dropShadow_20662_18597"/>
<feBlend mode="normal" in="SourceGraphic" in2="effect1_dropShadow_20662_18597" result="shape"/>
<feColorMatrix in="SourceAlpha" type="matrix" values="0 0 0 0 0 0 0 0 0 0 0 0 0 0 0 0 0 0 127 0" result="hardAlpha"/>
<feOffset dx="-0.150779" dy="0.201038"/>
<feGaussianBlur stdDeviation="0.251298"/>
<feComposite in2="hardAlpha" operator="arithmetic" k2="-1" k3="1"/>
<feColorMatrix type="matrix" values="0 0 0 0 0 0 0 0 0 0 0 0 0 0 0 0 0 0 0.25 0"/>
<feBlend mode="plus-darker" in2="shape" result="effect2_innerShadow_20662_18597"/>
<feColorMatrix in="SourceAlpha" type="matrix" values="0 0 0 0 0 0 0 0 0 0 0 0 0 0 0 0 0 0 127 0" result="hardAlpha"/>
<feOffset dx="0.150779" dy="-0.201038"/>
<feGaussianBlur stdDeviation="0.603115"/>
<feComposite in2="hardAlpha" operator="arithmetic" k2="-1" k3="1"/>
<feColorMatrix type="matrix" values="0 0 0 0 1 0 0 0 0 1 0 0 0 0 1 0 0 0 0.25 0"/>
<feBlend mode="plus-lighter" in2="effect2_innerShadow_20662_18597" result="effect3_innerShadow_20662_18597"/>
</filter>
<filter id="filter1_di_20662_18597" x="105.647" y="145.891" width="5.86861" height="5.64302" filterUnits="userSpaceOnUse" color-interpolation-filters="sRGB">
<feFlood flood-opacity="0" result="BackgroundImageFix"/>
<feColorMatrix in="SourceAlpha" type="matrix" values="0 0 0 0 0 0 0 0 0 0 0 0 0 0 0 0 0 0 127 0" result="hardAlpha"/>
<feOffset dx="0.201038" dy="0.201038"/>
<feGaussianBlur stdDeviation="0.201038"/>
<feComposite in2="hardAlpha" operator="out"/>
<feColorMatrix type="matrix" values="0 0 0 0 0 0 0 0 0 0 0 0 0 0 0 0 0 0 0.32 0"/>
<feBlend mode="multiply" in2="BackgroundImageFix" result="effect1_dropShadow_20662_18597"/>
<feBlend mode="normal" in="SourceGraphic" in2="effect1_dropShadow_20662_18597" result="shape"/>
<feColorMatrix in="SourceAlpha" type="matrix" values="0 0 0 0 0 0 0 0 0 0 0 0 0 0 0 0 0 0 127 0" result="hardAlpha"/>
<feOffset dx="0.150779" dy="-0.201038"/>
<feGaussianBlur stdDeviation="0.100519"/>
<feComposite in2="hardAlpha" operator="arithmetic" k2="-1" k3="1"/>
<feColorMatrix type="matrix" values="0 0 0 0 0 0 0 0 0 0 0 0 0 0 0 0 0 0 0.4 0"/>
<feBlend mode="plus-darker" in2="shape" result="effect2_innerShadow_20662_18597"/>
</filter>
<filter id="filter2_di_20662_18597" x="95.172" y="136.991" width="5.63618" height="5.56294" filterUnits="userSpaceOnUse" color-interpolation-filters="sRGB">
<feFlood flood-opacity="0" result="BackgroundImageFix"/>
<feColorMatrix in="SourceAlpha" type="matrix" values="0 0 0 0 0 0 0 0 0 0 0 0 0 0 0 0 0 0 127 0" result="hardAlpha"/>
<feOffset dx="0.201038" dy="0.201038"/>
<feGaussianBlur stdDeviation="0.201038"/>
<feComposite in2="hardAlpha" operator="out"/>
<feColorMatrix type="matrix" values="0 0 0 0 0 0 0 0 0 0 0 0 0 0 0 0 0 0 0.32 0"/>
<feBlend mode="multiply" in2="BackgroundImageFix" result="effect1_dropShadow_20662_18597"/>
<feBlend mode="normal" in="SourceGraphic" in2="effect1_dropShadow_20662_18597" result="shape"/>
<feColorMatrix in="SourceAlpha" type="matrix" values="0 0 0 0 0 0 0 0 0 0 0 0 0 0 0 0 0 0 127 0" result="hardAlpha"/>
<feOffset dx="0.150779" dy="-0.201038"/>
<feGaussianBlur stdDeviation="0.100519"/>
<feComposite in2="hardAlpha" operator="arithmetic" k2="-1" k3="1"/>
<feColorMatrix type="matrix" values="0 0 0 0 0 0 0 0 0 0 0 0 0 0 0 0 0 0 0.4 0"/>
<feBlend mode="plus-darker" in2="shape" result="effect2_innerShadow_20662_18597"/>
</filter>
<filter id="filter3_d_20662_18597" x="173.963" y="91.8582" width="33.4638" height="33.5537" filterUnits="userSpaceOnUse" color-interpolation-filters="sRGB">
<feFlood flood-opacity="0" result="BackgroundImageFix"/>
<feColorMatrix in="SourceAlpha" type="matrix" values="0 0 0 0 0 0 0 0 0 0 0 0 0 0 0 0 0 0 127 0" result="hardAlpha"/>
<feOffset dx="-0.204906" dy="0.819625"/>
<feGaussianBlur stdDeviation="2.04906"/>
<feComposite in2="hardAlpha" operator="out"/>
<feColorMatrix type="matrix" values="0 0 0 0 1 0 0 0 0 1 0 0 0 0 1 0 0 0 0.2 0"/>
<feBlend mode="normal" in2="BackgroundImageFix" result="effect1_dropShadow_20662_18597"/>
<feBlend mode="normal" in="SourceGraphic" in2="effect1_dropShadow_20662_18597" result="shape"/>
</filter>
<filter id="filter4_d_20662_18597" x="286.28" y="49.0922" width="45.3892" height="45.5142" filterUnits="userSpaceOnUse" color-interpolation-filters="sRGB">
<feFlood flood-opacity="0" result="BackgroundImageFix"/>
<feColorMatrix in="SourceAlpha" type="matrix" values="0 0 0 0 0 0 0 0 0 0 0 0 0 0 0 0 0 0 127 0" result="hardAlpha"/>
<feOffset dx="-0.245765" dy="0.983061"/>
<feGaussianBlur stdDeviation="2.45765"/>
<feComposite in2="hardAlpha" operator="out"/>
<feColorMatrix type="matrix" values="0 0 0 0 1 0 0 0 0 1 0 0 0 0 1 0 0 0 0.2 0"/>
<feBlend mode="normal" in2="BackgroundImageFix" result="effect1_dropShadow_20662_18597"/>
<feBlend mode="normal" in="SourceGraphic" in2="effect1_dropShadow_20662_18597" result="shape"/>
</filter>
<filter id="filter5_d_20662_18597" x="197.915" y="18.5245" width="36.3932" height="36.4879" filterUnits="userSpaceOnUse" color-interpolation-filters="sRGB">
<feFlood flood-opacity="0" result="BackgroundImageFix"/>
<feColorMatrix in="SourceAlpha" type="matrix" values="0 0 0 0 0 0 0 0 0 0 0 0 0 0 0 0 0 0 127 0" result="hardAlpha"/>
<feOffset dx="-0.223258" dy="0.893033"/>
<feGaussianBlur stdDeviation="2.23258"/>
<feComposite in2="hardAlpha" operator="out"/>
<feColorMatrix type="matrix" values="0 0 0 0 1 0 0 0 0 1 0 0 0 0 1 0 0 0 0.2 0"/>
<feBlend mode="normal" in2="BackgroundImageFix" result="effect1_dropShadow_20662_18597"/>
<feBlend mode="normal" in="SourceGraphic" in2="effect1_dropShadow_20662_18597" result="shape"/>
</filter>
<filter id="filter6_d_20662_18597" x="144.028" y="84.3153" width="26.742" height="26.8133" filterUnits="userSpaceOnUse" color-interpolation-filters="sRGB">
<feFlood flood-opacity="0" result="BackgroundImageFix"/>
<feColorMatrix in="SourceAlpha" type="matrix" values="0 0 0 0 0 0 0 0 0 0 0 0 0 0 0 0 0 0 127 0" result="hardAlpha"/>
<feOffset dx="-0.17231" dy="0.68924"/>
<feGaussianBlur stdDeviation="1.7231"/>
<feComposite in2="hardAlpha" operator="out"/>
<feColorMatrix type="matrix" values="0 0 0 0 1 0 0 0 0 1 0 0 0 0 1 0 0 0 0.2 0"/>
<feBlend mode="normal" in2="BackgroundImageFix" result="effect1_dropShadow_20662_18597"/>
<feBlend mode="normal" in="SourceGraphic" in2="effect1_dropShadow_20662_18597" result="shape"/>
</filter>
<filter id="filter7_d_20662_18597" x="123.076" y="88.4619" width="17.444" height="17.3629" filterUnits="userSpaceOnUse" color-interpolation-filters="sRGB">
<feFlood flood-opacity="0" result="BackgroundImageFix"/>
<feColorMatrix in="SourceAlpha" type="matrix" values="0 0 0 0 0 0 0 0 0 0 0 0 0 0 0 0 0 0 127 0" result="hardAlpha"/>
<feOffset dx="-0.0808974" dy="0.32359"/>
<feGaussianBlur stdDeviation="0.873693"/>
<feComposite in2="hardAlpha" operator="out"/>
<feColorMatrix type="matrix" values="0 0 0 0 1 0 0 0 0 1 0 0 0 0 1 0 0 0 0.3 0"/>
<feBlend mode="normal" in2="BackgroundImageFix" result="effect1_dropShadow_20662_18597"/>
<feBlend mode="normal" in="SourceGraphic" in2="effect1_dropShadow_20662_18597" result="shape"/>
</filter>
<filter id="filter8_d_20662_18597" x="128.067" y="92.3811" width="7.72995" height="9.0903" filterUnits="userSpaceOnUse" color-interpolation-filters="sRGB">
<feFlood flood-opacity="0" result="BackgroundImageFix"/>
<feColorMatrix in="SourceAlpha" type="matrix" values="0 0 0 0 0 0 0 0 0 0 0 0 0 0 0 0 0 0 127 0" result="hardAlpha"/>
<feOffset/>
<feGaussianBlur stdDeviation="0.34655"/>
<feComposite in2="hardAlpha" operator="out"/>
<feColorMatrix type="matrix" values="0 0 0 0 0.247059 0 0 0 0 0.611765 0 0 0 0 1 0 0 0 0.2 0"/>
<feBlend mode="normal" in2="BackgroundImageFix" result="effect1_dropShadow_20662_18597"/>
<feBlend mode="normal" in="SourceGraphic" in2="effect1_dropShadow_20662_18597" result="shape"/>
</filter>
<filter id="filter9_d_20662_18597" x="121.963" y="113.107" width="17.8655" height="17.8772" filterUnits="userSpaceOnUse" color-interpolation-filters="sRGB">
<feFlood flood-opacity="0" result="BackgroundImageFix"/>
<feColorMatrix in="SourceAlpha" type="matrix" values="0 0 0 0 0 0 0 0 0 0 0 0 0 0 0 0 0 0 127 0" result="hardAlpha"/>
<feOffset dx="-0.11153" dy="0.44612"/>
<feGaussianBlur stdDeviation="1.1153"/>
<feComposite in2="hardAlpha" operator="out"/>
<feColorMatrix type="matrix" values="0 0 0 0 1 0 0 0 0 1 0 0 0 0 1 0 0 0 0.2 0"/>
<feBlend mode="normal" in2="BackgroundImageFix" result="effect1_dropShadow_20662_18597"/>
<feBlend mode="normal" in="SourceGraphic" in2="effect1_dropShadow_20662_18597" result="shape"/>
</filter>
<filter id="filter10_d_20662_18597" x="202.155" y="58.9491" width="46.6658" height="46.7761" filterUnits="userSpaceOnUse" color-interpolation-filters="sRGB">
<feFlood flood-opacity="0" result="BackgroundImageFix"/>
<feColorMatrix in="SourceAlpha" type="matrix" values="0 0 0 0 0 0 0 0 0 0 0 0 0 0 0 0 0 0 127 0" result="hardAlpha"/>
<feOffset dx="-0.377387" dy="1.50955"/>
<feGaussianBlur stdDeviation="3.77387"/>
<feComposite in2="hardAlpha" operator="out"/>
<feColorMatrix type="matrix" values="0 0 0 0 1 0 0 0 0 1 0 0 0 0 1 0 0 0 0.2 0"/>
<feBlend mode="normal" in2="BackgroundImageFix" result="effect1_dropShadow_20662_18597"/>
<feBlend mode="normal" in="SourceGraphic" in2="effect1_dropShadow_20662_18597" result="shape"/>
</filter>
<filter id="filter11_i_20662_18597" x="210.08" y="64.9873" width="31.9477" height="33.5676" filterUnits="userSpaceOnUse" color-interpolation-filters="sRGB">
<feFlood flood-opacity="0" result="BackgroundImageFix"/>
<feBlend mode="normal" in="SourceGraphic" in2="BackgroundImageFix" result="shape"/>
<feColorMatrix in="SourceAlpha" type="matrix" values="0 0 0 0 0 0 0 0 0 0 0 0 0 0 0 0 0 0 127 0" result="hardAlpha"/>
<feOffset dx="0.377387" dy="1.88693"/>
<feGaussianBlur stdDeviation="1.20764"/>
<feComposite in2="hardAlpha" operator="arithmetic" k2="-1" k3="1"/>
<feColorMatrix type="matrix" values="0 0 0 0 1 0 0 0 0 1 0 0 0 0 1 0 0 0 0.25 0"/>
<feBlend mode="normal" in2="shape" result="effect1_innerShadow_20662_18597"/>
</filter>
<filter id="filter12_d_20662_18597" x="217.389" y="70.1915" width="16.8447" height="21.0302" filterUnits="userSpaceOnUse" color-interpolation-filters="sRGB">
<feFlood flood-opacity="0" result="BackgroundImageFix"/>
<feColorMatrix in="SourceAlpha" type="matrix" values="0 0 0 0 0 0 0 0 0 0 0 0 0 0 0 0 0 0 127 0" result="hardAlpha"/>
<feOffset dy="-0.377387"/>
<feGaussianBlur stdDeviation="1.56616"/>
<feComposite in2="hardAlpha" operator="out"/>
<feColorMatrix type="matrix" values="0 0 0 0 0.616667 0 0 0 0 0.616667 0 0 0 0 0.616667 0 0 0 0.5 0"/>
<feBlend mode="normal" in2="BackgroundImageFix" result="effect1_dropShadow_20662_18597"/>
<feBlend mode="normal" in="SourceGraphic" in2="effect1_dropShadow_20662_18597" result="shape"/>
</filter>
<linearGradient id="paint0_linear_20662_18597" x1="88.9692" y1="145.984" x2="106.496" y2="157.462" gradientUnits="userSpaceOnUse">
<stop stop-color="#62AFFF"/>
<stop offset="1" stop-color="#0D73FF"/>
</linearGradient>
<linearGradient id="paint1_linear_20662_18597" x1="88.9692" y1="145.984" x2="106.496" y2="157.462" gradientUnits="userSpaceOnUse">
<stop stop-color="#62AFFF"/>
<stop offset="1" stop-color="#0D73FF"/>
</linearGradient>
<linearGradient id="paint2_linear_20662_18597" x1="263.92" y1="67.5117" x2="251.321" y2="52.6983" gradientUnits="userSpaceOnUse">
<stop stop-color="#386FFC"/>
</linearGradient>
<linearGradient id="paint3_linear_20662_18597" x1="11.3301" y1="15.2703" x2="31.1797" y2="12.0415" gradientUnits="userSpaceOnUse">
<stop stop-color="white"/>
</linearGradient>
<linearGradient id="paint4_linear_20662_18597" x1="153.756" y1="24.2317" x2="166.617" y2="27.28" gradientUnits="userSpaceOnUse">
<stop offset="1" stop-color="#2E43FE"/>
</linearGradient>
<radialGradient id="paint5_radial_20662_18597" cx="0" cy="0" r="1" gradientUnits="userSpaceOnUse" gradientTransform="translate(10.4526 13.0897) rotate(87.5665) scale(8.63107 8.60146)">
<stop offset="1" stop-color="#F3F8FF"/>
</radialGradient>
<radialGradient id="paint6_radial_20662_18597" cx="0" cy="0" r="1" gradientUnits="userSpaceOnUse" gradientTransform="translate(9.76237 9.9554) rotate(91.6281) scale(7.71656 7.09739)">
<stop offset="1" stop-color="white"/>
</radialGradient>
<linearGradient id="paint7_linear_20662_18597" x1="13.1466" y1="6.92896" x2="6.82866" y2="7.78053" gradientUnits="userSpaceOnUse">
<stop offset="1" stop-color="white"/>
</linearGradient>
<clipPath id="clip0_20662_18597">
<rect width="327" height="240" fill="white"/>
</clipPath>
<clipPath id="clip1_20662_18597">
<rect width="15.8603" height="15.9099" fill="white" transform="matrix(0.972675 0.232173 -0.230639 0.973039 154.307 16.1904)"/>
</clipPath>
<clipPath id="clip2_20662_18597">
<rect width="10.2299" height="7.2678" fill="white" transform="matrix(0.962019 0.272982 -0.271218 0.962518 153.652 92.1465)"/>
</clipPath>
<clipPath id="clip3_20662_18597">
<rect width="8.38649" height="8.29953" fill="white" transform="matrix(0.975897 0.216077 -0.209887 0.978215 128.863 91.957)"/>
</clipPath>
<clipPath id="clip4_20662_18597">
<rect width="8.02424" height="8.0678" fill="white" transform="matrix(0.641146 0.766968 -0.766219 0.643112 131.551 116.018)"/>
</clipPath>
<clipPath id="clip5_20662_18597">
<rect width="16.3126" height="16.3545" fill="white" transform="matrix(0.930477 0.366351 -0.364134 0.931346 221.182 70.0684)"/>
</clipPath>
</defs>
</svg>
